<mxfile host="Electron" modified="2024-02-23T22:00:44.824Z" agent="Mozilla/5.0 (X11; Linux x86_64) AppleWebKit/537.36 (KHTML, like Gecko) draw.io/23.1.5 Chrome/120.0.6099.109 Electron/28.1.0 Safari/537.36" etag="8xg2TJhH1wYMNeS0CW67" version="23.1.5" type="device">
  <diagram name="Page-1" id="XTCA5G6cbBC70T64MSRc">
    <mxGraphModel dx="2383" dy="2042" grid="1" gridSize="10" guides="1" tooltips="1" connect="1" arrows="1" fold="1" page="1" pageScale="1" pageWidth="850" pageHeight="1100" math="0" shadow="0">
      <root>
        <mxCell id="0" />
        <mxCell id="1" parent="0" />
        <mxCell id="0JstrHkOvT4zA7hhjL8A-45" value="" style="rounded=1;whiteSpace=wrap;html=1;" parent="1" vertex="1">
          <mxGeometry x="20" y="510" width="220" height="140" as="geometry" />
        </mxCell>
        <mxCell id="0JstrHkOvT4zA7hhjL8A-35" value="" style="rounded=1;whiteSpace=wrap;html=1;" parent="1" vertex="1">
          <mxGeometry x="492" y="-50" width="358" height="390" as="geometry" />
        </mxCell>
        <mxCell id="0JstrHkOvT4zA7hhjL8A-34" value="" style="rounded=1;whiteSpace=wrap;html=1;" parent="1" vertex="1">
          <mxGeometry x="-70" y="-80" width="518" height="390" as="geometry" />
        </mxCell>
        <mxCell id="0JstrHkOvT4zA7hhjL8A-3" value="SD-WAN1" style="rounded=0;whiteSpace=wrap;html=1;" parent="1" vertex="1">
          <mxGeometry x="350" y="190" width="60" height="20" as="geometry" />
        </mxCell>
        <mxCell id="0JstrHkOvT4zA7hhjL8A-4" value="SD-WAN2" style="rounded=0;whiteSpace=wrap;html=1;" parent="1" vertex="1">
          <mxGeometry x="540" y="250" width="60" height="20" as="geometry" />
        </mxCell>
        <mxCell id="0JstrHkOvT4zA7hhjL8A-5" value="Velo Cloud GW" style="rounded=0;whiteSpace=wrap;html=1;" parent="1" vertex="1">
          <mxGeometry x="390" y="380" width="70" height="30" as="geometry" />
        </mxCell>
        <mxCell id="0JstrHkOvT4zA7hhjL8A-7" style="edgeStyle=orthogonalEdgeStyle;rounded=0;orthogonalLoop=1;jettySize=auto;html=1;entryX=0.5;entryY=1;entryDx=0;entryDy=0;" parent="1" source="0JstrHkOvT4zA7hhjL8A-6" target="0JstrHkOvT4zA7hhjL8A-5" edge="1">
          <mxGeometry relative="1" as="geometry" />
        </mxCell>
        <mxCell id="0JstrHkOvT4zA7hhjL8A-6" value="Cloud FW" style="rounded=0;whiteSpace=wrap;html=1;" parent="1" vertex="1">
          <mxGeometry x="310" y="470" width="230" height="30" as="geometry" />
        </mxCell>
        <mxCell id="0JstrHkOvT4zA7hhjL8A-8" style="edgeStyle=orthogonalEdgeStyle;rounded=0;orthogonalLoop=1;jettySize=auto;html=1;" parent="1" edge="1">
          <mxGeometry relative="1" as="geometry">
            <mxPoint x="430" y="410" as="sourcePoint" />
            <mxPoint x="430" y="470" as="targetPoint" />
          </mxGeometry>
        </mxCell>
        <mxCell id="0JstrHkOvT4zA7hhjL8A-9" value="DC&lt;br&gt;802.1X Auth" style="rounded=0;whiteSpace=wrap;html=1;" parent="1" vertex="1">
          <mxGeometry x="190" y="270" width="80" height="30" as="geometry" />
        </mxCell>
        <mxCell id="0JstrHkOvT4zA7hhjL8A-11" value="" style="endArrow=none;html=1;rounded=0;entryX=0.635;entryY=-0.125;entryDx=0;entryDy=0;exitX=0;exitY=0.5;exitDx=0;exitDy=0;entryPerimeter=0;" parent="1" source="0JstrHkOvT4zA7hhjL8A-3" target="0JstrHkOvT4zA7hhjL8A-9" edge="1">
          <mxGeometry width="50" height="50" relative="1" as="geometry">
            <mxPoint x="540" y="240" as="sourcePoint" />
            <mxPoint x="590" y="190" as="targetPoint" />
          </mxGeometry>
        </mxCell>
        <mxCell id="0JstrHkOvT4zA7hhjL8A-12" value="VLAN 300&lt;br&gt;192.168.41.83/24" style="edgeLabel;html=1;align=center;verticalAlign=middle;resizable=0;points=[];" parent="0JstrHkOvT4zA7hhjL8A-11" vertex="1" connectable="0">
          <mxGeometry x="-0.3111" y="1" relative="1" as="geometry">
            <mxPoint x="-33" y="17" as="offset" />
          </mxGeometry>
        </mxCell>
        <mxCell id="0JstrHkOvT4zA7hhjL8A-13" value="DG1&lt;br&gt;72.209.90.1" style="rounded=0;whiteSpace=wrap;html=1;" parent="1" vertex="1">
          <mxGeometry x="345" y="90" width="70" height="30" as="geometry" />
        </mxCell>
        <mxCell id="0JstrHkOvT4zA7hhjL8A-14" value="DG2&lt;br&gt;72.209.90.5" style="rounded=0;whiteSpace=wrap;html=1;" parent="1" vertex="1">
          <mxGeometry x="535" y="150" width="70" height="30" as="geometry" />
        </mxCell>
        <mxCell id="0JstrHkOvT4zA7hhjL8A-15" value="AP1" style="rounded=0;whiteSpace=wrap;html=1;" parent="1" vertex="1">
          <mxGeometry x="350" y="-10" width="60" height="20" as="geometry" />
        </mxCell>
        <mxCell id="0JstrHkOvT4zA7hhjL8A-16" value="AP1" style="rounded=0;whiteSpace=wrap;html=1;" parent="1" vertex="1">
          <mxGeometry x="540" y="50" width="60" height="20" as="geometry" />
        </mxCell>
        <mxCell id="0JstrHkOvT4zA7hhjL8A-18" value="" style="image;points=[];aspect=fixed;html=1;align=center;shadow=0;dashed=0;image=img/lib/allied_telesis/computer_and_terminals/Laptop.svg;" parent="1" vertex="1">
          <mxGeometry x="750" y="7.400000000000006" width="42" height="42.599999999999994" as="geometry" />
        </mxCell>
        <mxCell id="0JstrHkOvT4zA7hhjL8A-19" value="" style="image;points=[];aspect=fixed;html=1;align=center;shadow=0;dashed=0;image=img/lib/allied_telesis/computer_and_terminals/Laptop.svg;" parent="1" vertex="1">
          <mxGeometry x="750" y="90" width="42" height="42.599999999999994" as="geometry" />
        </mxCell>
        <mxCell id="0JstrHkOvT4zA7hhjL8A-20" value="" style="image;points=[];aspect=fixed;html=1;align=center;shadow=0;dashed=0;image=img/lib/allied_telesis/computer_and_terminals/Laptop.svg;" parent="1" vertex="1">
          <mxGeometry x="148" y="30" width="42" height="42.599999999999994" as="geometry" />
        </mxCell>
        <mxCell id="0JstrHkOvT4zA7hhjL8A-21" value="" style="image;points=[];aspect=fixed;html=1;align=center;shadow=0;dashed=0;image=img/lib/allied_telesis/computer_and_terminals/Laptop.svg;" parent="1" vertex="1">
          <mxGeometry x="190" y="-52.599999999999994" width="42" height="42.599999999999994" as="geometry" />
        </mxCell>
        <mxCell id="0JstrHkOvT4zA7hhjL8A-22" value="" style="endArrow=none;dashed=1;html=1;dashPattern=1 3;strokeWidth=2;rounded=0;exitX=1;exitY=0.5;exitDx=0;exitDy=0;" parent="1" source="0JstrHkOvT4zA7hhjL8A-16" target="0JstrHkOvT4zA7hhjL8A-18" edge="1">
          <mxGeometry width="50" height="50" relative="1" as="geometry">
            <mxPoint x="610" y="60" as="sourcePoint" />
            <mxPoint x="750" y="40" as="targetPoint" />
          </mxGeometry>
        </mxCell>
        <mxCell id="0JstrHkOvT4zA7hhjL8A-24" value="Guest VLAN 200" style="edgeLabel;html=1;align=center;verticalAlign=middle;resizable=0;points=[];" parent="0JstrHkOvT4zA7hhjL8A-22" vertex="1" connectable="0">
          <mxGeometry x="-0.0074" y="-3" relative="1" as="geometry">
            <mxPoint as="offset" />
          </mxGeometry>
        </mxCell>
        <mxCell id="0JstrHkOvT4zA7hhjL8A-23" value="" style="endArrow=none;dashed=1;html=1;dashPattern=1 3;strokeWidth=2;rounded=0;exitX=1;exitY=1;exitDx=0;exitDy=0;" parent="1" source="0JstrHkOvT4zA7hhjL8A-16" target="0JstrHkOvT4zA7hhjL8A-19" edge="1">
          <mxGeometry width="50" height="50" relative="1" as="geometry">
            <mxPoint x="600" y="150" as="sourcePoint" />
            <mxPoint x="750" y="123" as="targetPoint" />
          </mxGeometry>
        </mxCell>
        <mxCell id="0JstrHkOvT4zA7hhjL8A-25" value="Private VLAN 300" style="edgeLabel;html=1;align=center;verticalAlign=middle;resizable=0;points=[];" parent="0JstrHkOvT4zA7hhjL8A-23" vertex="1" connectable="0">
          <mxGeometry x="0.1165" y="-1" relative="1" as="geometry">
            <mxPoint as="offset" />
          </mxGeometry>
        </mxCell>
        <mxCell id="0JstrHkOvT4zA7hhjL8A-27" value="" style="endArrow=none;dashed=1;html=1;dashPattern=1 3;strokeWidth=2;rounded=0;entryX=0;entryY=0.75;entryDx=0;entryDy=0;" parent="1" source="0JstrHkOvT4zA7hhjL8A-21" target="0JstrHkOvT4zA7hhjL8A-15" edge="1">
          <mxGeometry width="50" height="50" relative="1" as="geometry">
            <mxPoint x="252" y="-25.6" as="sourcePoint" />
            <mxPoint x="402" y="-52.6" as="targetPoint" />
          </mxGeometry>
        </mxCell>
        <mxCell id="0JstrHkOvT4zA7hhjL8A-28" value="Guest VLAN 200" style="edgeLabel;html=1;align=center;verticalAlign=middle;resizable=0;points=[];" parent="0JstrHkOvT4zA7hhjL8A-27" vertex="1" connectable="0">
          <mxGeometry x="-0.0074" y="-3" relative="1" as="geometry">
            <mxPoint as="offset" />
          </mxGeometry>
        </mxCell>
        <mxCell id="0JstrHkOvT4zA7hhjL8A-31" value="" style="endArrow=none;dashed=1;html=1;dashPattern=1 3;strokeWidth=2;rounded=0;exitX=0;exitY=0.75;exitDx=0;exitDy=0;" parent="1" source="0JstrHkOvT4zA7hhjL8A-15" target="0JstrHkOvT4zA7hhjL8A-20" edge="1">
          <mxGeometry width="50" height="50" relative="1" as="geometry">
            <mxPoint x="340" y="10" as="sourcePoint" />
            <mxPoint x="470" y="69.30000000000001" as="targetPoint" />
          </mxGeometry>
        </mxCell>
        <mxCell id="0JstrHkOvT4zA7hhjL8A-32" value="Private VLAN 300" style="edgeLabel;html=1;align=center;verticalAlign=middle;resizable=0;points=[];" parent="0JstrHkOvT4zA7hhjL8A-31" vertex="1" connectable="0">
          <mxGeometry x="0.1165" y="-1" relative="1" as="geometry">
            <mxPoint as="offset" />
          </mxGeometry>
        </mxCell>
        <mxCell id="0JstrHkOvT4zA7hhjL8A-36" value="Site 2" style="rounded=0;whiteSpace=wrap;html=1;" parent="1" vertex="1">
          <mxGeometry x="620" y="-50" width="120" height="30" as="geometry" />
        </mxCell>
        <mxCell id="0JstrHkOvT4zA7hhjL8A-37" value="Site 1" style="rounded=0;whiteSpace=wrap;html=1;" parent="1" vertex="1">
          <mxGeometry x="250" y="-80" width="120" height="30" as="geometry" />
        </mxCell>
        <mxCell id="0JstrHkOvT4zA7hhjL8A-38" value="" style="endArrow=none;html=1;rounded=0;entryX=0.5;entryY=1;entryDx=0;entryDy=0;exitX=0.5;exitY=0;exitDx=0;exitDy=0;" parent="1" source="0JstrHkOvT4zA7hhjL8A-14" target="0JstrHkOvT4zA7hhjL8A-16" edge="1">
          <mxGeometry width="50" height="50" relative="1" as="geometry">
            <mxPoint x="430" y="300" as="sourcePoint" />
            <mxPoint x="480" y="250" as="targetPoint" />
          </mxGeometry>
        </mxCell>
        <mxCell id="0JstrHkOvT4zA7hhjL8A-39" value="" style="endArrow=none;html=1;rounded=0;entryX=0.5;entryY=1;entryDx=0;entryDy=0;exitX=0.5;exitY=0;exitDx=0;exitDy=0;" parent="1" source="0JstrHkOvT4zA7hhjL8A-3" target="0JstrHkOvT4zA7hhjL8A-13" edge="1">
          <mxGeometry width="50" height="50" relative="1" as="geometry">
            <mxPoint x="500" y="240" as="sourcePoint" />
            <mxPoint x="550" y="190" as="targetPoint" />
          </mxGeometry>
        </mxCell>
        <mxCell id="0JstrHkOvT4zA7hhjL8A-40" value="" style="endArrow=none;html=1;rounded=0;entryX=0.5;entryY=1;entryDx=0;entryDy=0;exitX=0.5;exitY=0;exitDx=0;exitDy=0;" parent="1" source="0JstrHkOvT4zA7hhjL8A-50" target="0JstrHkOvT4zA7hhjL8A-15" edge="1">
          <mxGeometry width="50" height="50" relative="1" as="geometry">
            <mxPoint x="500" y="240" as="sourcePoint" />
            <mxPoint x="550" y="190" as="targetPoint" />
          </mxGeometry>
        </mxCell>
        <mxCell id="0JstrHkOvT4zA7hhjL8A-41" value="" style="endArrow=none;html=1;rounded=0;entryX=0.5;entryY=1;entryDx=0;entryDy=0;exitX=0.5;exitY=0;exitDx=0;exitDy=0;" parent="1" source="0JstrHkOvT4zA7hhjL8A-4" target="0JstrHkOvT4zA7hhjL8A-14" edge="1">
          <mxGeometry width="50" height="50" relative="1" as="geometry">
            <mxPoint x="430" y="300" as="sourcePoint" />
            <mxPoint x="480" y="250" as="targetPoint" />
          </mxGeometry>
        </mxCell>
        <mxCell id="0JstrHkOvT4zA7hhjL8A-42" value="" style="shape=link;html=1;rounded=0;exitX=1;exitY=1;exitDx=0;exitDy=0;entryX=0.25;entryY=0;entryDx=0;entryDy=0;" parent="1" source="0JstrHkOvT4zA7hhjL8A-3" target="0JstrHkOvT4zA7hhjL8A-5" edge="1">
          <mxGeometry width="100" relative="1" as="geometry">
            <mxPoint x="480" y="210" as="sourcePoint" />
            <mxPoint x="460.00000000000045" y="320" as="targetPoint" />
          </mxGeometry>
        </mxCell>
        <mxCell id="0JstrHkOvT4zA7hhjL8A-43" value="" style="shape=link;html=1;rounded=0;exitX=0;exitY=1;exitDx=0;exitDy=0;entryX=0.75;entryY=0;entryDx=0;entryDy=0;" parent="1" source="0JstrHkOvT4zA7hhjL8A-4" target="0JstrHkOvT4zA7hhjL8A-5" edge="1">
          <mxGeometry width="100" relative="1" as="geometry">
            <mxPoint x="410" y="270" as="sourcePoint" />
            <mxPoint x="510" y="270" as="targetPoint" />
          </mxGeometry>
        </mxCell>
        <mxCell id="0JstrHkOvT4zA7hhjL8A-44" value="CBEDC01 DC&lt;br&gt;802.1X Auth" style="rounded=0;whiteSpace=wrap;html=1;" parent="1" vertex="1">
          <mxGeometry x="120" y="590" width="80" height="30" as="geometry" />
        </mxCell>
        <mxCell id="0JstrHkOvT4zA7hhjL8A-46" value="RapidScale Cloud" style="rounded=0;whiteSpace=wrap;html=1;" parent="1" vertex="1">
          <mxGeometry x="70" y="510" width="120" height="30" as="geometry" />
        </mxCell>
        <mxCell id="0JstrHkOvT4zA7hhjL8A-47" value="" style="endArrow=none;html=1;rounded=0;exitX=1;exitY=0.5;exitDx=0;exitDy=0;entryX=0.109;entryY=0.95;entryDx=0;entryDy=0;entryPerimeter=0;" parent="1" source="0JstrHkOvT4zA7hhjL8A-44" target="0JstrHkOvT4zA7hhjL8A-6" edge="1">
          <mxGeometry width="50" height="50" relative="1" as="geometry">
            <mxPoint x="320" y="390" as="sourcePoint" />
            <mxPoint x="370" y="340" as="targetPoint" />
          </mxGeometry>
        </mxCell>
        <mxCell id="0JstrHkOvT4zA7hhjL8A-48" value="10.100.0.11" style="edgeLabel;html=1;align=center;verticalAlign=middle;resizable=0;points=[];" parent="0JstrHkOvT4zA7hhjL8A-47" vertex="1" connectable="0">
          <mxGeometry x="0.1846" y="-2" relative="1" as="geometry">
            <mxPoint as="offset" />
          </mxGeometry>
        </mxCell>
        <mxCell id="0JstrHkOvT4zA7hhjL8A-51" value="" style="endArrow=none;html=1;rounded=0;entryX=0.5;entryY=1;entryDx=0;entryDy=0;exitX=0.5;exitY=0;exitDx=0;exitDy=0;" parent="1" source="0JstrHkOvT4zA7hhjL8A-13" target="0JstrHkOvT4zA7hhjL8A-50" edge="1">
          <mxGeometry width="50" height="50" relative="1" as="geometry">
            <mxPoint x="380" y="90" as="sourcePoint" />
            <mxPoint x="380" y="10" as="targetPoint" />
          </mxGeometry>
        </mxCell>
        <mxCell id="0JstrHkOvT4zA7hhjL8A-50" value="" style="sketch=0;points=[[0.015,0.015,0],[0.985,0.015,0],[0.985,0.985,0],[0.015,0.985,0],[0.25,0,0],[0.5,0,0],[0.75,0,0],[1,0.25,0],[1,0.5,0],[1,0.75,0],[0.75,1,0],[0.5,1,0],[0.25,1,0],[0,0.75,0],[0,0.5,0],[0,0.25,0]];verticalLabelPosition=bottom;html=1;verticalAlign=top;aspect=fixed;align=center;pointerEvents=1;shape=mxgraph.cisco19.rect;prIcon=l2_switch;fillColor=#FAFAFA;strokeColor=#005073;" parent="1" vertex="1">
          <mxGeometry x="365" y="36.3" width="30" height="30" as="geometry" />
        </mxCell>
        <mxCell id="0JstrHkOvT4zA7hhjL8A-52" value="" style="sketch=0;points=[[0.015,0.015,0],[0.985,0.015,0],[0.985,0.985,0],[0.015,0.985,0],[0.25,0,0],[0.5,0,0],[0.75,0,0],[1,0.25,0],[1,0.5,0],[1,0.75,0],[0.75,1,0],[0.5,1,0],[0.25,1,0],[0,0.75,0],[0,0.5,0],[0,0.25,0]];verticalLabelPosition=bottom;html=1;verticalAlign=top;aspect=fixed;align=center;pointerEvents=1;shape=mxgraph.cisco19.rect;prIcon=l2_switch;fillColor=#FAFAFA;strokeColor=#005073;" parent="1" vertex="1">
          <mxGeometry x="555" y="96.3" width="30" height="30" as="geometry" />
        </mxCell>
        <mxCell id="3-OMPbUQMq2ibhE6GX9g-1" value="" style="endArrow=none;html=1;rounded=0;entryX=1;entryY=0.5;entryDx=0;entryDy=0;entryPerimeter=0;exitX=1;exitY=0.5;exitDx=0;exitDy=0;" parent="1" source="0JstrHkOvT4zA7hhjL8A-3" target="0JstrHkOvT4zA7hhjL8A-50" edge="1">
          <mxGeometry width="50" height="50" relative="1" as="geometry">
            <mxPoint x="470" y="210" as="sourcePoint" />
            <mxPoint x="520" y="160" as="targetPoint" />
            <Array as="points">
              <mxPoint x="440" y="100" />
            </Array>
          </mxGeometry>
        </mxCell>
        <mxCell id="3-OMPbUQMq2ibhE6GX9g-2" value="Trunk &lt;br&gt;VLAN 300-307" style="edgeLabel;html=1;align=center;verticalAlign=middle;resizable=0;points=[];" parent="3-OMPbUQMq2ibhE6GX9g-1" vertex="1" connectable="0">
          <mxGeometry x="-0.559" relative="1" as="geometry">
            <mxPoint as="offset" />
          </mxGeometry>
        </mxCell>
        <mxCell id="3-OMPbUQMq2ibhE6GX9g-3" value="" style="endArrow=none;html=1;rounded=0;entryX=1;entryY=0.5;entryDx=0;entryDy=0;entryPerimeter=0;exitX=1;exitY=0.5;exitDx=0;exitDy=0;" parent="1" edge="1">
          <mxGeometry width="50" height="50" relative="1" as="geometry">
            <mxPoint x="600" y="259" as="sourcePoint" />
            <mxPoint x="585" y="110" as="targetPoint" />
            <Array as="points">
              <mxPoint x="630" y="159" />
            </Array>
          </mxGeometry>
        </mxCell>
        <mxCell id="3-OMPbUQMq2ibhE6GX9g-4" value="Trunk &lt;br&gt;VLAN 300-307" style="edgeLabel;html=1;align=center;verticalAlign=middle;resizable=0;points=[];" parent="3-OMPbUQMq2ibhE6GX9g-3" vertex="1" connectable="0">
          <mxGeometry x="-0.559" relative="1" as="geometry">
            <mxPoint as="offset" />
          </mxGeometry>
        </mxCell>
        <mxCell id="3-OMPbUQMq2ibhE6GX9g-5" value="Edgemarc&lt;br&gt;98.163.70.5" style="rounded=0;whiteSpace=wrap;html=1;" parent="1" vertex="1">
          <mxGeometry x="240" y="130" width="70" height="30" as="geometry" />
        </mxCell>
        <mxCell id="3-OMPbUQMq2ibhE6GX9g-6" value="" style="sketch=0;points=[[0.015,0.015,0],[0.985,0.015,0],[0.985,0.985,0],[0.015,0.985,0],[0.25,0,0],[0.5,0,0],[0.75,0,0],[1,0.25,0],[1,0.5,0],[1,0.75,0],[0.75,1,0],[0.5,1,0],[0.25,1,0],[0,0.75,0],[0,0.5,0],[0,0.25,0]];verticalLabelPosition=bottom;html=1;verticalAlign=top;aspect=fixed;align=center;pointerEvents=1;shape=mxgraph.cisco19.rect;prIcon=l2_switch;fillColor=#FAFAFA;strokeColor=#005073;" parent="1" vertex="1">
          <mxGeometry x="20" y="110" width="30" height="30" as="geometry" />
        </mxCell>
        <mxCell id="3-OMPbUQMq2ibhE6GX9g-7" value="" style="endArrow=none;html=1;rounded=0;exitX=1;exitY=0.5;exitDx=0;exitDy=0;exitPerimeter=0;entryX=0;entryY=0.5;entryDx=0;entryDy=0;entryPerimeter=0;" parent="1" source="3-OMPbUQMq2ibhE6GX9g-6" target="0JstrHkOvT4zA7hhjL8A-50" edge="1">
          <mxGeometry width="50" height="50" relative="1" as="geometry">
            <mxPoint x="350" y="250" as="sourcePoint" />
            <mxPoint x="400" y="200" as="targetPoint" />
          </mxGeometry>
        </mxCell>
        <mxCell id="3-OMPbUQMq2ibhE6GX9g-8" value="Access&lt;br&gt;VLAN 300" style="edgeLabel;html=1;align=center;verticalAlign=middle;resizable=0;points=[];" parent="3-OMPbUQMq2ibhE6GX9g-7" vertex="1" connectable="0">
          <mxGeometry x="-0.1049" y="-3" relative="1" as="geometry">
            <mxPoint y="-1" as="offset" />
          </mxGeometry>
        </mxCell>
        <mxCell id="3-OMPbUQMq2ibhE6GX9g-9" value="" style="endArrow=none;html=1;rounded=0;exitX=1;exitY=0.5;exitDx=0;exitDy=0;" parent="1" source="3-OMPbUQMq2ibhE6GX9g-5" edge="1">
          <mxGeometry width="50" height="50" relative="1" as="geometry">
            <mxPoint x="330" y="220" as="sourcePoint" />
            <mxPoint x="360" y="190" as="targetPoint" />
          </mxGeometry>
        </mxCell>
        <mxCell id="3-OMPbUQMq2ibhE6GX9g-10" value="" style="endArrow=none;html=1;rounded=0;exitX=1;exitY=0.75;exitDx=0;exitDy=0;exitPerimeter=0;" parent="1" source="3-OMPbUQMq2ibhE6GX9g-6" edge="1">
          <mxGeometry width="50" height="50" relative="1" as="geometry">
            <mxPoint x="330" y="220" as="sourcePoint" />
            <mxPoint x="240" y="150" as="targetPoint" />
          </mxGeometry>
        </mxCell>
        <mxCell id="3-OMPbUQMq2ibhE6GX9g-11" value="Trunk&lt;br&gt;VLAN 269 &amp;amp; 369" style="edgeLabel;html=1;align=center;verticalAlign=middle;resizable=0;points=[];" parent="3-OMPbUQMq2ibhE6GX9g-10" vertex="1" connectable="0">
          <mxGeometry x="0.2445" relative="1" as="geometry">
            <mxPoint x="-12" y="3" as="offset" />
          </mxGeometry>
        </mxCell>
        <mxCell id="3-OMPbUQMq2ibhE6GX9g-12" value="" style="fontColor=#0066CC;verticalAlign=top;verticalLabelPosition=bottom;labelPosition=center;align=center;html=1;outlineConnect=0;fillColor=#CCCCCC;strokeColor=#6881B3;gradientColor=none;gradientDirection=north;strokeWidth=2;shape=mxgraph.networks.phone_2;" parent="1" vertex="1">
          <mxGeometry x="-40" y="-3.700000000000003" width="40" height="40" as="geometry" />
        </mxCell>
        <mxCell id="3-OMPbUQMq2ibhE6GX9g-13" value="" style="endArrow=none;html=1;rounded=0;exitX=0.015;exitY=0.015;exitDx=0;exitDy=0;exitPerimeter=0;entryX=0.5;entryY=1;entryDx=0;entryDy=0;entryPerimeter=0;" parent="1" source="3-OMPbUQMq2ibhE6GX9g-6" target="3-OMPbUQMq2ibhE6GX9g-12" edge="1">
          <mxGeometry width="50" height="50" relative="1" as="geometry">
            <mxPoint x="40" y="220" as="sourcePoint" />
            <mxPoint x="-30" y="70" as="targetPoint" />
          </mxGeometry>
        </mxCell>
        <mxCell id="3-OMPbUQMq2ibhE6GX9g-15" value="Trunk&lt;br&gt;VLAN 269" style="edgeLabel;html=1;align=center;verticalAlign=middle;resizable=0;points=[];" parent="3-OMPbUQMq2ibhE6GX9g-13" vertex="1" connectable="0">
          <mxGeometry x="-0.1908" y="-4" relative="1" as="geometry">
            <mxPoint x="-8" y="-6" as="offset" />
          </mxGeometry>
        </mxCell>
        <mxCell id="3-OMPbUQMq2ibhE6GX9g-16" value="" style="image;points=[];aspect=fixed;html=1;align=center;shadow=0;dashed=0;image=img/lib/allied_telesis/computer_and_terminals/Laptop.svg;" parent="1" vertex="1">
          <mxGeometry x="98" y="-59.99999999999999" width="42" height="42.599999999999994" as="geometry" />
        </mxCell>
        <mxCell id="3-OMPbUQMq2ibhE6GX9g-17" value="" style="endArrow=none;html=1;rounded=0;entryX=-0.095;entryY=0.469;entryDx=0;entryDy=0;entryPerimeter=0;exitX=0.98;exitY=0.12;exitDx=0;exitDy=0;exitPerimeter=0;" parent="1" source="3-OMPbUQMq2ibhE6GX9g-12" target="3-OMPbUQMq2ibhE6GX9g-16" edge="1">
          <mxGeometry width="50" height="50" relative="1" as="geometry">
            <mxPoint x="40" y="220" as="sourcePoint" />
            <mxPoint x="90" y="170" as="targetPoint" />
          </mxGeometry>
        </mxCell>
        <mxCell id="3-OMPbUQMq2ibhE6GX9g-18" value="Text" style="edgeLabel;html=1;align=center;verticalAlign=middle;resizable=0;points=[];" parent="3-OMPbUQMq2ibhE6GX9g-17" vertex="1" connectable="0">
          <mxGeometry x="-0.0682" y="-1" relative="1" as="geometry">
            <mxPoint y="1" as="offset" />
          </mxGeometry>
        </mxCell>
        <mxCell id="3-OMPbUQMq2ibhE6GX9g-19" value="Trunk&lt;br&gt;VLAN 300" style="edgeLabel;html=1;align=center;verticalAlign=middle;resizable=0;points=[];" parent="3-OMPbUQMq2ibhE6GX9g-17" vertex="1" connectable="0">
          <mxGeometry x="-0.0437" y="-5" relative="1" as="geometry">
            <mxPoint as="offset" />
          </mxGeometry>
        </mxCell>
        <mxCell id="3-OMPbUQMq2ibhE6GX9g-20" value="" style="fontColor=#0066CC;verticalAlign=top;verticalLabelPosition=bottom;labelPosition=center;align=center;html=1;outlineConnect=0;fillColor=#CCCCCC;strokeColor=#6881B3;gradientColor=none;gradientDirection=north;strokeWidth=2;shape=mxgraph.networks.phone_2;" parent="1" vertex="1">
          <mxGeometry x="760" y="200" width="40" height="40" as="geometry" />
        </mxCell>
        <mxCell id="3-OMPbUQMq2ibhE6GX9g-21" value="" style="endArrow=none;html=1;rounded=0;entryX=1;entryY=0.25;entryDx=0;entryDy=0;entryPerimeter=0;exitX=0.02;exitY=0.12;exitDx=0;exitDy=0;exitPerimeter=0;" parent="1" source="3-OMPbUQMq2ibhE6GX9g-20" target="0JstrHkOvT4zA7hhjL8A-52" edge="1">
          <mxGeometry width="50" height="50" relative="1" as="geometry">
            <mxPoint x="310" y="200" as="sourcePoint" />
            <mxPoint x="360" y="150" as="targetPoint" />
          </mxGeometry>
        </mxCell>
        <mxCell id="3-OMPbUQMq2ibhE6GX9g-24" value="Access&lt;br&gt;VLAN (Cust. choice)" style="edgeLabel;html=1;align=center;verticalAlign=middle;resizable=0;points=[];" parent="3-OMPbUQMq2ibhE6GX9g-21" vertex="1" connectable="0">
          <mxGeometry x="0.031" y="-4" relative="1" as="geometry">
            <mxPoint x="33" y="23" as="offset" />
          </mxGeometry>
        </mxCell>
        <mxCell id="3-OMPbUQMq2ibhE6GX9g-25" value="Internet" style="ellipse;shape=cloud;whiteSpace=wrap;html=1;" parent="1" vertex="1">
          <mxGeometry x="630" y="400" width="120" height="80" as="geometry" />
        </mxCell>
        <mxCell id="3-OMPbUQMq2ibhE6GX9g-26" value="" style="endArrow=none;html=1;rounded=0;entryX=1;entryY=0.25;entryDx=0;entryDy=0;exitX=0.07;exitY=0.4;exitDx=0;exitDy=0;exitPerimeter=0;" parent="1" source="3-OMPbUQMq2ibhE6GX9g-25" target="0JstrHkOvT4zA7hhjL8A-6" edge="1">
          <mxGeometry width="50" height="50" relative="1" as="geometry">
            <mxPoint x="340" y="350" as="sourcePoint" />
            <mxPoint x="390" y="300" as="targetPoint" />
          </mxGeometry>
        </mxCell>
        <mxCell id="3-OMPbUQMq2ibhE6GX9g-27" value="" style="image;points=[];aspect=fixed;html=1;align=center;shadow=0;dashed=0;image=img/lib/allied_telesis/computer_and_terminals/Laptop.svg;" parent="1" vertex="1">
          <mxGeometry x="48" y="209" width="42" height="42.599999999999994" as="geometry" />
        </mxCell>
        <mxCell id="3-OMPbUQMq2ibhE6GX9g-28" value="" style="endArrow=none;html=1;rounded=0;entryX=0.228;entryY=-0.154;entryDx=0;entryDy=0;entryPerimeter=0;exitX=0.75;exitY=1;exitDx=0;exitDy=0;exitPerimeter=0;" parent="1" source="3-OMPbUQMq2ibhE6GX9g-6" target="3-OMPbUQMq2ibhE6GX9g-27" edge="1">
          <mxGeometry width="50" height="50" relative="1" as="geometry">
            <mxPoint x="-51" y="270" as="sourcePoint" />
            <mxPoint x="40" y="439" as="targetPoint" />
          </mxGeometry>
        </mxCell>
        <mxCell id="3-OMPbUQMq2ibhE6GX9g-29" value="Text" style="edgeLabel;html=1;align=center;verticalAlign=middle;resizable=0;points=[];" parent="3-OMPbUQMq2ibhE6GX9g-28" vertex="1" connectable="0">
          <mxGeometry x="-0.0682" y="-1" relative="1" as="geometry">
            <mxPoint y="1" as="offset" />
          </mxGeometry>
        </mxCell>
        <mxCell id="3-OMPbUQMq2ibhE6GX9g-30" value="Trunk&lt;br&gt;VLAN 300" style="edgeLabel;html=1;align=center;verticalAlign=middle;resizable=0;points=[];" parent="3-OMPbUQMq2ibhE6GX9g-28" vertex="1" connectable="0">
          <mxGeometry x="-0.0437" y="-5" relative="1" as="geometry">
            <mxPoint as="offset" />
          </mxGeometry>
        </mxCell>
        <mxCell id="3-OMPbUQMq2ibhE6GX9g-31" value="" style="shape=image;imageAspect=0;aspect=fixed;verticalLabelPosition=bottom;verticalAlign=top;image=data:image/png,iVBORw0KGgoAAAANSUhEUgAAAZoAAAFFCAYAAADVbiuZAAAAAXNSR0IArs4c6QAAAARnQU1BAACxjwv8YQUAAAAJcEhZcwAADsMAAA7DAcdvqGQAAH9ASURBVHhe7Z0JYFTV1cf/s2RlFxAENzABCUEFl2oiiFWwgSpQS2ytGq0akKqk+lGrpba1uJXPfkErS7QVtHUJVVIpRMEVSFRQQAlBkoCiLIEAISHbrO+75773Zt5MZiYz2chyfnqZ9+67b53J/d9z7n33mOrr65WYmBjU1tYiOjoaDocDBOWZTCY4nU65Hgyr1Sr3odSrVy+I48Fms8ll+rRYLFpJhmEYpjtiEmKg2O12PPDAA3C73TLTbDbD5XLJdVoOBZUhsVEUBc8++6xc79mzpxSuqKgomc8wDMN0X0xCGJS6ujopNP369ZPCQAJBFgpZNOEIBZU5fvw4nn/+eS2HYRiGYVTMJ0+eRGxsrMf1RdYIWTO9e/eW7jPaFiqRu43KMQzDMEwgTEJgFHJ3zZo1C2eddZbH3UV9M/RJfSxGq8bfwqF1SuXl5S20aPZi9cKl2FihreoMHI/Z867HcFreuxoLl26EfxEkTcdfbk/RVjQClE2a/hcYixUu/w3yirUVD0mY/pfboRYrxPLf5KFxEfV8e1cvxNJGF+w9T+Dj6wzE+NnzMHqndgzPPYQ+Z+DnpB7revmQGIZhOhZmsl5IVMgyIUh0yGVG+WSx0LouJvoyfepJ39ZmVGzE0oWrRfUaguI8/GZ5obZCGrMQvwkgSMV5v/EpF5hi5P1muajumw+dp8nTNIsgYswwDNOBMVNnv3G0GXXsNzQ0SHdYTU2NFJ1QqS1EhiyCv/xFpOlJakbF19jpozRkdahlZo8fqGZVHFPFqHC5x8oYOH62ehxjOSFK/iLgKTd7vLANiGKU+JQhi0G7JkpGs4gga0Numw3v5exFyu36Pt58z739pSkLJMA59+7E1/LWfLd57o1hGKYDIoWGRoiR9UId+uQCq6yslImGKldUVHjS0aNHGyW9bJuQMkJIClGBY+VyoRHlx7Tm/cD+0r1WWKI5nQaOx42Gmnz49Td6KvtiXxXxMnw0zjcIReSUw3s5benHqsDGDd57GH797ew2Yximw2Kqq6tT4uLisHnzZmnZkJVCLjESGbJqqI+G8oJBZXWSkjQLpFl43UKevhRhnfxGdnJofRAI0kejbx/uPQZZKfP8al9Pn4rW71Ou9aF4yhr6ddRrCNxfol9fsD4a/fjeswe4Nw3PMZroo9H3a9Tv49mPYRimY2ImMamursZnn32G9957Dx999BE++OADbN++He+//75MlK8v64nKUPrwww89qbWQfSm/EUmvUZNSQ7TYyY3WlBsqNBUbl6rn00VMCMWE5tbdVPH7iEzrIt1xukuRKM4T196yPiWGYZi2xEx9M2TJkLAcO3YMhw8flu6zffv24ciRI571Q4cO4eDBg57PAwcOYP/+/Z7P4mL/NnjrIPtPGrXY1T4atW+iGHmewQLD0d/j+vL3te3FTrWDQxxUdbMFJKBQ+PaJNL4c6qPR+mFExb9wdXPcbv6EOGfK7Wq+oU+poFXOyTAM0/qY9U596qshNxkNBqAhziQ+lGhZT/p6oPzWhNxEegXr7/4yMvz6VLUPp2Ij3tQq2pQRWmvfr8Lfu/pNbbSWqMD9zBXjoIHmu6GG4/pUrUdp45tok3qfXHvGkQyGPiWGYZiOitk4PFn/1MXHP+nb9E9Kxv3bnxTcrrmRPJW7aO17BqvpLjGRvCPRbmyGm60CG5dq7jxKwYZbe84tyr/ZxJDsJglyTukq0/P1oc4Dcf7otnLWMQzDtAzPRGZGsaEOfn2uMz3p6/6f+j6njJQJ2mgyb+XeqB9DorqiQllIrUHKBM2dZbCyWo3h/TVXmRF9IIS2yjAM08Ew2e12OTPAvffei0GDBkkrhV7gJDcaiUkwq8UoTATPdcYwDMMEQrrOdPzFhAiUp0Pb9MQwDMMwgTCTNaMno3AY141l9KRvI/RPhmEYhvFHzgygd+z7YxQTf/RtocowDMMwjBwMQEJBgqNbKyQ6/p39gZL/Nh1dtAKJF8MwDNO9aBQ+0180jMv+hNrGMAzDMETQOM3+YuOfdPzXGYZhGMaIz3s0xuSfp6/rn/7bGIZhGCYQJpvNplB/zP33349+/frJfhVdQPT+mkBiYhQZ+qSQ0IsXL5br+j7B9g1M46Be/jMdNw+/4wabJTlkJE8t6maAqJ2BZon2P7axjHH25cb3p+4nTtYK980wDNMxkC9s0guautAQuogYRcJfMPy30wzQS5YskeJiFBj//YJDgvAmcGMrvuWuCcNAY8VduBqrB18vzkGVeglGaGGbSQAK+hvCBchL8Ztcs1G+JmIDDVP1y9AGFT5v6+9dvRrl11+PwRQS4FiqWlZe2zGkGs6fV5yEpCShQiNYaBiG6To06TrTP/2Tjv96R6Jwg5/IECkkMtqyAZqMs/GMz00xHNfPm43xFQXaJJpCeAp8RYYYLkQmRWzb+TW8E3oOvx6pQlT0GGxqNM7bMUJdZRiG6TKENRggEO0qLmQleCaSXOidGZmsgoXCQhHWQOOYLIUoERbCiLAsA00gmhWEZjhGnw98TbGmKdQyzkfg+S0p+uZAGANvDu4/sJmRPBmGYToPcmYAEg0KD0CftG632+V7NYS+3Zj88/Ry+sufxu2RYZyxWBMU6YqibgttGv/Z5+PrpQZRqdiIYyNUa8BHJvYeQ8XA/hisrQamGHn6LMgD/YKrieMu1cUt2GzN/pSr5wyoMwzDMN0UGY+GQjlTZz4JhB6HhpZJcHSonI5xmfp3aDABHYOWKdF2mpQzcozBvlT3095jFUiabhARP5cTdeIHNERopuOKY8KOCIUaQE2eb0SJr6DQ4AB9WxgRMweSqTJYPSfbKAzDMF7kpJokKPHx8VJcKOKmPisABTWj7SQcwawTKkOiYrPZ5DJBy7Q/5RtFqX0ZjP4DDYLUFCkjkNSkMAWiEBs2Av3JdJLi9jXIi9YYup4KGD1l5UJEpUAxDMN0YTx9NCQMlHRBoU9KlEfC45/888n1RgJD4tKrVy+5L63rx2ouw/sPRHGewVW2dzUKwup7USNeFucZ+nQEe1cv91n3UFiC4iZdbf6ow5ErPMHUUjBhPLDR6NoTFC6ndbUvZ+MGbUvY98EwDNO5MTU0NEgVoHg0ZNXofTWELjRkldCnEX/xINfbiy++KMuS+4xEpkePHlJ4aOhzTEyMVjIYwYc376VhwZ4XYQyBvhoNNw6AHEbsfffF+06L77sunndlaNFvH8854Z8f6F0YgexXMhzZU0YbDi0PEDhgGQ1zLuHhzQzDdCF8hCY2NlZ26JOI6O4yEhg9z4j/OrnfKPAZfdK+xn4evf+GYRiG6X74uM6of4YsESE+8pMSCQXlN5VISOrr66UVQ1YR5ZFLLZBIMQzDMN0Hj0VDQkNuLqMVQ9A65VNeKEhUyPV24sQJaRnRwAB9BBoLDcMwTPfFIzQkCLooUNItkXCFhsqR2OguM1omaJ2sIl24GIZhmO6Fp/bXRUVPOiQalPzz/SEx0l1lJCy0TpALTR/2zDAMw3Q/TGVlZXL2ZoZhGIZpC0xz5sxRyGV2ql1bdA1M8wllbTIMw5xKTG63WwoNwzAMw7QFcq4z6kdhGIZhmLbApGg+l1PtemGrqmWw64xhmI6KyeVySa3RR4kxDMMwTGvisWgYhmEYpi2QQ82aehmTYRiGYZoLWzQMwzBMm8LzwjAMwzBtCgsNwzAM06aw0DAMwzBtCgsNwzAM06aw0DAMwzBtCgsNwzAM06aw0DAMwzBtCgsNwzAM06aw0DAMwzBtCgsNwzAM06aw0DAMwzBtCgsNwzAM06aw0DAMwzBtCgsNwzAM06Y0HSagbBWeeO4jHNZWk2cuwt1XaisM01EoK8IVSw7jU211zoxr8Dz9Tjd9DtOqKjVTcPn4Mfhk+ulyuTRvE0ZstMllSdK5UO48r3E+YvD8PVdiToK2quNzbGOZPfjVg99isczvg3XPXIJJcllD7ofG+QzTVSGhCUbpW48r99+fo2zU1omNb72llGrLp46NSo7fdTHdl5JVGxU8sEVZp60T61btUEpoYeMWBS+WyTxFKVPmPLBReV77AdN+l686rK4YaJRfukO5/IH3lDmGH9y6F99T8JR2Dslh5flVdB7x+ZS3rLw2n/OL/V7cIj59r5dhujIhXGeb8OFHAzFz0d0wGjBXzpgB/4Ydw5w69iB7Y2wj62DS9GQkastezsP0JBt2lmur4ZKQjE/uGYStBUUopXVhPT16dBBKHjKe43TMmX6e2HYEr2AQsrQ/msTpZ2BOcSXWy7Xz8Pwz1wirqZ9cY5juQnDX2aYXMHfXKCwK4Sfb9MJcrCzSVgZNxH2PqCJUtuoJ5GICRu1aiY8O06b78MjADzFXK+xxv5FbLheYMGoXVlJB4zb/83vWgRfmroT3tOLYMxLkOZ/TjiEOou23SZTdhQETK/DRR8DE+x6BKOrB/zqN9xDs3ih/16iZwEr1Guh6r67Qzz3I5xyBr4lpVcgNtbufdHkFxLid3GtvAi9rAkEustswwuNK0wmcfwSLny4BbrwSk4oC7ydpdD3e/byuN3KtVWI6u86YbkJQi6asogKDBgzW1hojK2KIynPRIpnuE2Lx3AubtK3A4Y82AOm0bSYGfvScKhJUdmYyijasQplWThTEBqSr2+6biIqVLwh5CMWVuFscM1n8N1Pso4tMrn4MkWaKK/NeShF2yW2+IqPjvc77MBEf4UNtvyvvVo8ljzfQm08UrdyFUbRNXu9cz7nFKj7SCoa+Jqa1KD3agMv799LWglD8LUwPvg/TksMYl+pr6Xy6cYe6TaQr8o5ouaH59pgN4wYEEBmGYQISVGgSBg7E4aPBfAxlqKgQFb2hhZ4wYwKSi3Z5RGLQxHStYh+MAYNES/9qrezgAaLdb0BYC+m6AiTMwIRkIQwRVsjlRw8LwRBiNneuTGSJVFToUpaMCYEURsN7nQkYM2qQdz+ytgIej4wTzZ2YMBADDcenZ6YT+pqY1iJxQCw+PXZSWwsCdfKTy0qk6bt9BYUGB+jbAlooPsQiUXzV5/aPwdaj4YkSwzChhjeTIBiEo6NDLizdeqBElk6zkSPtjmKCdqz7JvpIY9i06jUxgRkci8s9fSBNM2lkn6aFKRCbvsOvhNCcKxaluO0+ovbX+EPXc7TesO0kdh5RBYphuivBhUazLlY+YXBziaVVL9B6AgYOFNsMvqCyVRtQlDzKZ+BAWBzehR36CUQFv6EoGaPoIH5Ct2mX3mHSmMEDBvm641pK+VEcHjRA2GJEGXbs0vpZIqDVr4kJTEIyHkuqwuSntY56yREs/rtx3cv63VVNu9r8kcORG/D8jZrb7cqz8TwOY8Tf98jNKnvwK1pPOB23im3Z2g+3NO8QFif1474YplsTYtSZ2k8h+14098/cubnA1Wqn+JV334eJFSs9rqHndo3Cfc3p7B40EEdzteM/twuj7tPdUprQacffhWRZXOVKjNK2PbFKyN6MR2Q/ivc6n4DIbj5XXi37a9Tj5eLowMgtmla/JiYok+68BiUjT2CE1tdierAEuMrQF6P30Yg0WdgkRheZsY/GZBArn3z5zouxM/90zHnoGqyD97gm6tyXAwDEthsHYesqNX/E7r4oCTZQgWG6CU2/sNmWaKPO0rURXQzDMEzXI6RFwzAMwzAthYWGYRiGaVNOreuMYRiG6fKwRcMwDMO0KSw0DMMwTJvCQsMwDMO0KSw0DMMwTJvCQsMwDMO0KSw0DMMwTJsSYnhzGVY98Zwap0XHEJelzfFMbOkbeI1hwiFYrBkJzV1WEOsXuKyD01TcHYbpwDQhNHJ+GL9AXo2jbjJMRyOk0IRLR6rcWWiYTkxErjOaKPK+iRXYwLNDMgzDMGESkUUj8ZkI08+9ZghX7B8mOWg4ZxluuXFoZp/zaMvekM++IZOZbg6FaF5yGJ/KlT5Y98wlOFdaNGfg1t3f4lcyRpmaL6frN1gHquVjKHf6INWlRmVWVVFpQQyev4dmb6awzDu04wFzZlyD5+k3LI8Xi+ePHsavxG8z+P5iUQsn/djIE5i80Sa3eo7jg/FcYv/xsfjVMa9Fs/7v72NysVz0XjMta/dGM0vL7RT07ap6z/OhQG8tsvIYphm0YDCAKjK7Rt3nCexF4Ypp2n6d8MI5U2hmPTgYlfswcLA1Q8hnY8hkpruzB79acgK33qNGyVQMcfg/3XgIuFHNLxnfgMk+8WO8eMuNAcWZkbFkrrwEyow+WnROXWQo9r9+nnOBVZ97A64Vn1C3eUSGQgtoZe/pi1eWGMoeOYxHMULbRiEFDNs01v9diMwAPTLoCGC3LlqayMAbNVSGSDDeW/G3yBtJ28T9HP0WJiFsL2vnwsbvwg4SxzCtRfOEZuBAYc2U4ygMYZgFV14tFGDXDk1AyDoJL5wzWT9qzBaybCoQMOKxIeRzwphRGFRR4TkP043ZVInFSWcYYsV4uXz8CE9+4nRRJkgkTm+50zFpZLAwzRQp0yZETY8/8y0WowGl+o/QcA2lRxuEleIVPD04mzCeVIQF8rJuVfhvkxwRxxAWmKc/5nTMSRWiJ/HfFuDeks7VLKTTkThAWEypmrWTEIdx9Mkw7UzEQrPpw4+AAWrsydZADjA4OkGzaO5DM6MmM90UqtQjjpjZbMj9ploRatLcYa0OiZq2yDBdgIiEZtMLc7GyQrcshJWCj5BrcJVJERo1JqLhz+VHD2OQLlxlO9CMqMlMNyYxuS+wsQSLA5i3xrj+LQ+p3AujT6/Co3lNK0DigFgsNrrDyorwaHEfTNf7YY6cwHr9eo3byOUmXWDnYbqwcrznOoLFBbrrjKyUKh83IIeLZjo6TQjNYXz0nB6KWIgMZmKR5z2aBMx4ROt7MWyXHfkRIN1t+jFyj6IZUZOZ7kxCMj6ZEWtwaXkr+MsHNOA2LdRys0IqX9kPc2QY6E1CyE7HnIfOxbggoZ99uPIStU9ILyf7kAyutNNjsfPNINs0Jt1pPFcJMFJ3ndE2re9FOz6Hi2Y6OhyPhmHaE23U2cud6WVRhmkhLRh1xjAMwzBNw0LDMAzDtCnsOmMYhmHaFLZoGIZhmDZFCg0bNQzDMExbYXY6nTCZTNoqwzAMw7QuUmgYhmEYpq0wPfjgg4rL5dJWOy8tdf91dquO3Z8Mw3RUTG63W+kKrjMWGhYahmE6JlJoyKKxWq1aFsMwDMO0Hl3mPRq2aNiiYRimYyItGqqkzGZ+pYZhGIZpfczUkmeR6fzY0AAnaoE6wA2FligTcAAusYVhGOZUwQrTRbAosVDsJiDaJWTGBJf7BGC1C5uVtnb+UYUMw3Rewu6j+Wzbt/hyz1HsPlKHY9U2nBYbhfP6x+CikQNxYdKZ6NEjhl/8PIU4UQ2rTbQbrD1hM9cixiRMGaWX+IbtcCtxwnTVCjIMw7QzIYXG5XLDLGqonLe2YvW329Dv7EMY0j8eteWJ+P77PugZ1xuoqMXQsdvwyzE/RcKw02G1WrS9mfZEEbpistjgMsXA7SZ9qYE1rifcMl8ktl0ZhjlFhKx+SGT++GIhltUuw4Ax32OIcwwGnDEA+0/2R9TgXojuF4NaKPi+7Gy8taYMu8vKRSUnajmm3TFFlaNOqYHD5ISVDJvonqKlYIc5CnC4eEQawzCnjpBCs2jFFrxhehaxl2zGPRdfid/NPB9jKlMxYHBv9Dx3AMwxVkTHRWHoeXX45PBX+PiTb3Giql7bm2lXbINRY2kAvQ1lMrnhsgjBd0fDgSOIimKhYRjm1BFUaD75/Bss/f5lWC6wYFTcaAzq0QNRlngMP7M3zh8zAC6rFS6TCdbYKAwe/w4u//UqvL55B3bsOqAdIRD5mCX2Mc3K19Z1KD8Vi8q01VNCONegXb8nhXvNhmOXLUJqa91r/izPtQyKfRQljn6AYheWjBlVbpdYBizoLwqy34xhmFNH0Bpo9Sc7UTJoA2q+qUbZid742P4pKiv64u2Ne1FUZUFtnRM2uwv1tTZU2/eg0lWP+qGl+LL4qHaEYKQgpWgKGmlNk3QEMSJSkF2qyBckS7OBrIxFiOiSEuaiQCnA3ARtvbmQYE0B1orroGv5+mAMPtoUD6sSL9SlAibymZmPw6RwnxnDMKeWoEKzrrgIoz/6PXqunonK567FWwvOw7N5W7DjklE4eqIHTtbEoNpRBXdtPCYursKU56rxdN06RO99TTtCcNLnZ6NoQYQVdAckYe58ZBbmYs2puJHSYhSmJCFRW+13xu8w/2qxIL/RgRC2DWA9TVg7UEc4MwzDnCKCCo3JVI1eNdE4PW4w+l80EruSzkXBgKH4qvgETu7/FvaqI7Dt64ff2qdh/OUDcPXDS3HZXRno4diBbwte1o4ShMS5mJ+chYxg5ol0L+nuqVnCliFrZgpyUIisRJEnzKH8WSaDVeRn7dD++kafYzXeZ9asVO0cRmibep6ICHouI/6WWRkWpRr3Udd99iUXWaqfMKdNFyIX5Bk2en6E8X5TkRrqHE3uP0vmMAzDhENQobFWx+LwGbvxjQs4vHE74j8qRXXuR6h951Ngsx1nF+1HffVRNFgGwnLtn/DY7N9g8mOxmHHPj7HujRztKMFJW7YWyVkZAVxhokJLzEW65p5S1gILFiVimVjI1N1Wy9JEPZuJnDytpszPQ1EKkKuZFmVrcoEkauvTsbKQvFY7VqmwpKYYK/lCFCWtENuWIU3LUSt+6ZOS5wlF2aIFyElJx1TpBmvqXIGgcyUiN71U3UekZWkJmDvfcG+C/LwcZM6fC19vW5p4JqVIz02UguAjoI2en34R+v0WoCDoOcLZf5m2zjAM0zRBheaapPGI2nY+en5XjVhnDGLmvYZhf/4C1zz0FYZN3IoDtfEwHXFBiaJ5ToBHborGdY7X0GPgFXK9aURFuTYZWQu9lZ2krARFuuVCLeopwo4pLtU2GkhMQkpRiWyB5+cVIX1+OimNWC8D6Uw61f7yWJmYrutFgrCkMgvhPVyKWs5AboZa8QfXGO+1JWYlY22BJgBNnisAZWuQW5iJ+f4dNmSt5OSJKp/IR15RNuYFvB4hSgVCDKSoaWIT8vkZ7jfYOcLdn2EYJkyCCs3VVw4V/1rhtLlw4saXUFzhQkW1GUU1x3BszHYMmbQbowd/DZfbBdPeV+U+Dz16GU7sfUMuh0XaPGQHHBiQ6enklilQrZ8wFemg/hGqJIVVkUbrxSilylssNa8+LBQpJbCwefAOBvC1hFqTNMzLLpKWBFlNRelT/awZP4SorchOMVgoYTy/kOcIZ3+GYZjwCCo0Pxh3Nq5P6wE44hC9Og01JXvw6ZHtOFh3VCRhxfTMx08t/4drb5mAZ5/bgRfXOfDPJZ/jv//8CpnPbtKO0hSiRb6CWuPU/6KRMALJYs3rrglGAqaSEZOhV5K0XoS8hcVkzqiVpnYsT/1btggLcgxWRyNEi31FAdZiClKbPL8fEZ9LQGKZEvheE+TNLcRC3TrzJ3+RTz/PmtxCpJC7MOznZzxHsteqimB/hmGYcAgqND17xuKOm0fg8ot7AfvOwjkf/wwDKnvDfdKFM/btRMYHu6XI/PEPG/Cx4ybsH74QF//yn/jF0x9oRwgTrTXuJQ3L5Lhhte9BJmnypGF6pncwACErSmGE6BUxrRflFBkqZvVY5FaSx5F9D01bIWnLtL4P/w74kDTnXOT6or4q7716rDtyvSXnICd5fuCh0GkjUKy7t0yJyEpeiwJZMNjzC4C0Cukc0w3XGcH+DMMwYRByrjOn04Wvyw7jtX+XYdU7x1F+ZQ4uPbcW//NthRSZ3/9hI8rOvQsXnvcD/OjKoUg6fyhiojlSZ2tBI+vyptMAAS2DYRimE9Lk7M00sWZVdT22frUfqzdtx49P/kmKTMZfzsPoi6/AuAv744LRQ9G/Xw+eULM1oSHGGcAKfbABwzBMJyXiUM7rf5uE974246YHFmLcBG5qtz7qkOesQhp00AozCDAMw5xiIhYahmEYhomEoIMBGIZhGKY1YKFhGIZh2hQWGoZhGKZNYaFhGIZh2hQWGoZhGKZNYaFhGIZh2hQWGoZhGKZNYaFhGIZh2hQWGoZhGKZNYaFhGIZh2hQWGoZhGKZNYaFhGIZh2hQWGoZhGKZNCUNo8jFLj7SoJRnmmOKlmFK1cMJURl9ueyggWLOjPvpc96mBrr9RqOj8Weo9dYDrUwn2nYbzXbfv74FhmI5NmBYNxUZRQBEFKMmQwQlzUaCcgngpFIu/KBOZRQvCrMj8Kr1Tdd0G0qZnorC4VFtTyc/LQeb0tA5xfQzDMK1Jp3Odla3JBdLnYV46kLumkzaZE5OQkpMnJFAnH3k5mSCdYRiG6Wq0QGhCuEek+0d3tc0yVKgtpQxSZ6YmIGGqVBqRY4SiU3pdfLPy6RqnIAeFyErU3W1+1+1zrbSPlq+XWzTLs62Ru6u5JExFekoO8vRz5echJ3M6VJ0JdX3qsyTXW6PrNJZvrluxOTT5XWvXl+8t12rPkWGYTkGYQqNV1FpFEboeExVLYi7SdVfbWmBBa1UsZWsgjgyhM2plLda8Ro0aAjk3vdTj4luWloZl4gIyddffMn+Tga41C8lrtWstzUbRFEOlTfddPF27j0wUZi0MUJE2hwRMTU9BUYl6Io/brBGBnyW53nJ0lRIiVZTite6kxZeUKJdbju/3riYSbp1wv2txnAXACu0ZIysjcAOFYZguSbP6aBrV10bKSlBkrKCmCHvCrz+iuahus6mimiaoshZ11kKtwiURKszE/Eg6N+S1GlxWCXMxP7MQ3ssV9z1P25g2XZQsgqYNLcZrkZWhRChFQG0I9izJ9VZUIq25/LwipM/3Hku3+FoH3+9dTSTcGmF/1+I4K+aq31ujZ8wwTFenjfpoMrHWWDmFVKZwycfCrEJhVSRqLWsTEsW6aNq3kpXRzugWWb7BSgtIgGfpsebykVck9k2j9WKUGi2+diPS75qEVVtkGKZb0PpCkzACychpPXeZDvVjpGSj1FipKaXITtH6OrR+j4jOq12rp6+kbBEWtFunvGaRTckyWGl+BH2W6r65GQtQJPel9SLkLSwOfqy2IOzvutA7cEOzPHngA8N0H9rAoknDMumH91oezX7nxQD1Y6Q0qkTVvg61vyIBcwvWItlwXvW0aZieqbl3Gl2Heq1FU7TrlP0Ny7RO+baH3Gcp4r/grq7gz1K63oRBp+9L60U5Ra3oNguHcL/rFCQXZ2jPmPrE2u8ZMwxz6jEJy0DRlhmmDaBRZwuQVMrvBjFMd6WN+mgYhmEYRoWFhmEYhmlT2HXGMAzDtCls0TAMwzBtCgsNwzAM06aw0DAMwzBtimn16tWK2WyWL0AyzKnCrZi0pebRsr0ZhmlLTA0NDXI8gAtRWhbDtD9m8QtsEdxQYpgOi8nlckmLhgmfnK+0hTYg8wJtoZvRUplgi4ZhOi4sNM2AhObiQdpKK/LF4e4rNC3F7XZrSwzDdDQ6/Xs0zzzzDB588EFtrX1oD6E5FffFMAzTFkihEVYNLBaLltW5aGmFTDpLkz1GQkcSmrEzPtCWwsMd3RtfvnGJtsYwDNP2SJ9ZUyJz6EQ9Xt7QytP++5GTk4ONGzdqa+3D3n17sPPrzh0cxd1vgCdNnZSMaWljcOPUMUi//gL8fNpFuGXGRbjtxrG49cZxYnmc+MId2p4MwzDtg5msmVCUHanFtQvy8epn32k5bUNhYSH+85//tJvY1NSfxEs7luGPJ+7DWx+s1HI7H4pD8SSraC9QSr2oBx7+5QD85vbTMOnyHujf1wr6mm0OE0yOBm1PhmGY9iFkH83u8hr85H/X4bobJ2Hrh5/io0cmaVtan9tvvx0///nPsX79ekybNg3jx4/XtoSmOa6zk3XVeO29f+LjxFWINllg/7YaN+wdjHHDBkH3oiluBQmX3wHTaT9QMwz4u8425i7VlprH+PTZ8rNZrrObPtGWgJ9el4jhQ6Px8+t6Y/P2Q6irqcDEKy9AXb0D//fyAdjd/bB63afYuuo6bQ8V+QOQLkT1p2BvcOD5xTmIjo9Hg80FS1NWkLmxRZx1n3pPDMMwQYeblR5WRWbyjGvw2bH2GdFz6NAh/PjHP24Ty6am/CsUrPyVTAv/+XMUDHkbPePj4BT/Db52KDZcbYV7ZBZeqluCe49kYlDCpSj+4j/a3k1z7XVpYaXdh+w+ny3F5GrwJLNQyYrjLix7Yy8W57yK/7z3PdZv2IP4uCiYbV+irkGUU2zanl5cLrWfyuVwS5GJjo2BKSoKKROuwXVTp+HatBkhU2vfE8MwXYuAFs2eilrc8PS7mDz9h/jshAmW6GhYPt+EnrHBX+rMvuUSJJzeU1trzLp16/Dqq69qa4GZPHkyrFYrBg8ejLfffjssyybcln/px/Mx9Kxe2FfTD//64mPUDrShdpQN/c/pg9qik4g5riC6pAGzL7wMveNj5T77j9Rh9KQn5LKRQBbNN4fqtbXIGHZGXIssmnEzvBEtb5r2A/neosvlgL3uJCxxA/CLtJ4470wr7vvt3+HscRk2f3UAX6z8kbaHitPtgpWsEu2X4HAoeG7pizh45DganC6YYFU3BMFs9v1d0D2xRcMwjE4jofm6vAY3kiUz7WpsrjLDHB0lKv8omCwmWREpLjcUpxsOmx0N9Q04WdOA9OEx2F1chpW/StWO0hhyjf3oRz/CgQMHEC2EK0q0mGNjYxETEyPFxel0wm63y/chbDYbhgwZgg0bNjQpNuFWyN9tfgp9z0pEnOM7lOyrgLgLvDBkN/qd1w/f/F8xZkQPR//+fWVZi0U19Pr27RW20KRNvV5bC4xLPLdA73q8ty4fV828CzazFTvL7bhjTLQwM5145v8W44EH7hdfkBOKid6bN8NKu5sa4DLFCgvGBrclBqnTVsGpVfQzr0+RlonNJcTDDlx/VQ9cOjoaq9fvxPLX8jEwYQa2froBm9++Q5YPRfZzLbsnFhqGYXR8hMYoMp9VCksmJhrWKKtosZpl34XbraCuwYHqGrtI9ag52YBa8Tnngp44uO/7JoUmNTUVFRUVUlxIaGi0m//QYqq4aICCw+HAWWedhS1btoQUm3CF5ptPn8Sw0WOAk3ukYH5UtAd5Vx6GctSJxK2n4d4fTtFKeln/5tuY9MuXtDUvgYSmR5/+2lpk1FYda5HQpExbKdZj5LF+cv14CAMEDrcJqRfEIC0lDh99ug/PLs1FfP/RiBswFjsK38Snq++V5UNBQtOSe2KhYRhGx6ePhkRm0g0ThciIVn20VYiBRVgbZulRqWpw4/sTdnx7zIYDlfU4XmVDTW0DnPU28r2oB2gCEhgSLbJc6uvrZSJBIXTBId3TrZudO3fihhtukH02LcVF1ygqbYhWeIOwxgqd+2FTbKjefBTjescLAfoWqNbSib2oOVyi7Rket910gyddfVUqir7e75MXLIWLR47F86Hvwyz+kXniHixCfCjZxKOsF5ZMg0PBVeNisWXHESwSIhPdOwEx/S6CQwi43uEfDoGu15iC3SfDMIwRH6FZ+0gadn22HT85Lx5R0VGiJrPguKi49p10YX+1HZU1NtiEsLgbbHDVi5Y1iQwlTSyaglxitbW1UlxIcMiFRkkXGd2SIZGhshMnTkReXh5uvPFGub0lkJtHUcR1Covp5ZLPsfPs49hTuBc/tg3HRWcOke5ARZgDbkrCcvO1s5qGBPK+JQVCrD/TctQ8PR2vP4xbP7zCJ49SOJgMX5NnkmPx3VCuCXZh3VTL1CC+K7u4T4fdifhYE/Z//x2iepyNHoN/AJvIs9WL5+4SrYgwMV7nbe9egS+ObfLJ06Fl/d6N+QzDMISP0JxzWhxeuCsF69cWYNIZUfiuTsGhWhduPsuEO4eZcXdiFO4eGYNZo+Nxz0W9cf8l/XD/5QOllRAOffv2xaWXXirTRRddhOTkZIwcOVKmxMREafGQyFAikfnvf/+LmTNn4oorrtCO0Hyc4horaysxf/27WO/8Bs4tNfjNicvxo3GJiLVa4HK4hNWjJbFsirDCJJdfdublyP219617yqN0pHY/5n463SdPTxFBIqPoX5n6qSi1MLurZGqwk0grsAvR/Otrx7Dhk52ANV60BYSFKO7HaVFkuXAxXqfL6sJfvvo1PjnyXqNrp2X93o35DMMwhI/QEGf3i8VLmSnY9uGn+MmZJphExUut4d2fbUPZF1/hmx3F2Pd1KQ7s/QYHv9+Pg4fLcfDYUfzlprHaEQJz6623Ytu2bfj000/l0OUPP/wQ7733nid98MEHOPPMM6Ulc9VVV8n3aahfpjVEhnAK8dj/3REkmk/DpIPn4JXUn+LKC4YhJsoqBzi43UJgXArclKiyjLBhTi35rJxPkf5/n2s5ah6l/9mSjvMS1fdx9Dw9RQZZZdo+wgo0wSkEUVg0Cg1bbhBiqsDhtEkXWUw0cGnKD4GYIXAoNHjDgQbRaIgE43WazRaMSkzFC7se9+Tp0LJ+78Z8hmEYopHQEEP6xOKZn4/DtwWbcfPZ9H6FU+ZTZ3+wNGxAvCwTjGuuuQZPPPFE0ESQ22zChAlyKPT111+PGTNmyPzWgF7AHHnOAEy7OAm3XTlO7bMR/9OnU1TMTuq+EcvSoiE3W4Qtc6pg/3rXZXh97jgtx1tR/++lb2BPqepS0/P0FBaBikkfmtig2ITg0BBklxQYh1PIjxDVX93YHzennYWRZzngbHDCKe7fqVA5u7p/GBivM1r8993er3DX+b9rdO20rN+7MZ9hGIYwU+udOt/9OUtYNv/787HYt2Wb2N4+7hByrZElQyLTWpaMjktUtGbFCavZrAqLEBMX3bv4lMvaOpVTLZvI7/mBFzfjZ4u2amteTos5A3+97E1trbkEuh4apO397hzimu2iUdAghOavrx3Gi//6AJ9seA+2+oOwC4uN7skcgdD4IPRj9vl/wGX9J2oZvgS7d4ZhGDN1ytN7LIE4u18cFv1iHA7tLJaumrbm3XffbRORIaiDX3E55adcFi1vdZncZrSuuqXc4lMmkecIIMCh8LdojPSNHoh/XLlBW/PFabYKe0FBdWw0zM5qkUNDytVpXVxuE9wmmgbGLKwtyqHXJ+tRpzTAhhj0VI6JPS0y2ewO2MhCE5bLx5+fxFsF4gvukwyXeYC01IT+CJrXaFg6/j2M7ZeirTUm1L0zDNO9MYmKVvo6/N9nMVJx0oaNXx/GTy49W8tpfZYvXy4HBUQqMuG+R/PBP2dpS15olJuTKmAhKHK0mxzx5pDLlEfb7lvQeBr+1p7rbMJNs0X9b8MH5TH4nwtqxZfRQ9zXIvz6gblCcMhqEcLnssBiFt+RyY36hmpEx/aW79ZcN/lOKDTWOVxMFnyU/4K2Ehx6j6Yl8Hs0DMPoyBc2qSUfSmg6MuEKTWviLzQtxeFwokecGZ8fM+OORJsQFSue+euzePCB+2G2kswoQlKi4HYIC4WMT5MQQWHemCyxwgoT9k/n/OoYhukmBJzrjAkNCU1rQuGAnA01OGHuidljAZppLVokk0JuLgfcJrMUGvJ62WxOxMSSZaMIgXIhyhojlukoDMMwHRPT7t27FeqjYb05dfR0nxSmigmVpl4Y4K5ErTMadiUKUfG9UO9wIDbKjboaG3r26C1naK6trYJFWDr0vZEl6nIHHDx4ygn3NxXYmm5eX5KXjvVM+O+r/emsXhqdzvyb8X/2psrKSqWzfyGdnVp3jPhihHUSF484d70QlXo5Aq+6uhqWKLMcXk4vs9LABeo/6tWjpxAXBxoa6qRAmU1k/3Q8wv1dBfqDcplCzxjdFBaabqgDwX9j7U9nF/fO/Jvxf/am48ePKzS5Jbe4Th2KOQaKSYHbXg2H24re8T1wsqoap50mxKauBjHWeDhdDUJonHLqHqE34kdIE5IqcgofEp+uRkuFoqVCxTBM62GqqqqSCsNCc+owC+tEEZZJjLsOjqg+QnAciI2OQZ34NFnMMCmi0jS74FZsMNN0OU4zYqLjUFNTJyydKPHlRfbGf2fAHMHkn4FweyaFYxjmVCNdZ+Trp6G+zKnB1ML+CBqT1tVwNBFsrSmiDC+yMgxzajFVV1cr5Hoh9xlzamipL1bpghaNVchnS3AK+Y6KElZhXZ38bVP8Ix36vZMFHx1lkbNiUAA+msiV3JJ6g0sG43N1byu/pQ2gzk6wBlx3fy7NwVRbW6s0NDSw0JxC3ErLnn1L3UwdkZa6ckm8STx69eolJ2rVp1mi37keooK268JCn7SN9qNE548kdk9XhPoBuzPBGnDd/bk0B1Nubq5Cf3ixw4JPL8K0MS20aNT3bboWbvGbbAlmmrdOiAeN1qMAe3FxcXKdBIQ+KZGVo7uNSWRom57I6rFGdczRfO2F4u7e7nSTNg2UP939uTQH01tvvaVQa69HQvC4/EzbQjNLtwSqGLsa1hZ2O9E8sNTyJBGRDanYWFRVVUnBIVGRQ8VdTik0ZNnoeWTN6MH4XM5mTkDaReiKfX+REMxF1t2fS3MwrVy5UtZSPVloThmWFlokbnPXa3nTPG4tQciG/CQRJhGhxpR8B6lXL5CrmPJpBJ/uJiMxIkiYCBIdSzd3nanzHXVj3EEGlHT359IMPELTe8RVMoNpf5wtfOHSrHS9lndLxddlIuEwSwEhkSEB6dmzpxQbGiDQp08fNNSdlGXJ2qEQ42TJkCgRtI9JHqM7082FVtg0genuzyVyPEKzq+yAzGBaH1MTo8LMLRzFQq3yrobb5B0l1hzMikOKC/XR0CdZKNQnU1NTg969e0ux+Z8Hs+RAARKfDRs2oLKyUj5LfYRaVxzNFwk8GCDw98+DASLHR2h+/9u5MpNpXZpq/7RUJrpi+8rUwg5XxUyd+1QpkDtMCI8wTnQ9pvVnnvkrZt2dIS0YSq+88gpKSkrkwAESG9lf091dJN1caCmkRkC6+3NpBt3dN9AuUP0WKrWUQMfs7EkKRQsSHcNsEmIhPq2ivqAfuuzclX02FI1U5Fmi5AwCdrESF98T9Q12UUhs1FN3x/gsAiWlJ6JNJ2GzumF19YbFGouGaAVWhxsuS5x45nHCmm8Qgk2vT8Sj1iG+mxjxTZidoFB/AY/ZkVIwApXlFDJFJDRbtmzBi/94Gb/+02Lc8vuX8eAf/oZ/vPRPbN68WbokuuLop9aBXGOhEuNPoKcUSWLaHprwta5B/Zu3RpvgsNkhqhXExUXD6bBDoT4ua4ywJqPl6L746ChYxJcjjEW0V3h4pmPQpNDo/u2lLy7HH97fjA299iFmfD36jeqLPfFj8MHJ0Xj29RL8Jec5lJaWel6MYwwo4jGHSkwjLHC2KDFtT529Fr16DEaMEJGT9SfgFpZMlKgr7IoDMSYTGpwu2F0kRi7ZF6a4HXCJ+sFiscIc3b3fUepuNFnL0aidPzy9BC9Ef4JB4yowxDkG/c8YgP0n+yNqcC9E94tBbc9zUGIfhXXvbUJZWZkUJsYLtflCJSYQ1D/SksS0NWarsGIcFjTU1cMaa8XAvqeBooqfqLUhykLvI9H7Sz2FtRMPk9hA0wqZXSIpUXB1wZeMmeA0KTR/W/IP/HvgRsReshmzL07FIzPPx5jKVAwY3Bs9zx0Ac4wV0bFROCuxHvnf1WLL59tx4sQJbe9A5GOWaO2YZuVr6zqUn4pFZfqyOhWImvR8jfxZhm2zROnAlC1K1c5jPHZb4T1H/iwTUg0nE5cZMjFMZ0QR4kH94j1iYoW2R6GquhKKU0F036Fy8IViq4S9vg4mkhiTW+S5YTXTiD6zsHS6XmgLJjghhWbz5i1YXLEdlgssGBU3GoN69BAtlXgMP7M3Ro4ZABdN3yFqSqsQmkHj30XKA2/j5Q/3Yvfu3doRgpGClKIpaKQ1PqQgu1SdDqQ0G8jKWARZdZctQuoUYK3Ip21KaRJKAh1HlMvITUfpsjQto/1IW1aK9NwMg7BR6y1UYjo2lyJz8WIs9kuZl2qbdYZOw6MBtwXe/9FpQ7XtxFBMe5TyM0VpQtvn0Wlii45/GcGlmT7H9Nnmx9Bpj/qUlefX9m+0HAbCoBH1gQKXzY4am0tojRATkwXH6mNQ01CPQb0UmBy10v1upxdm5UhCs2hcmWAR+zHdh5BC8+GmzSg5YwNqvqlG2Yne+Nj+KSor+uLtjXuxs8qC2jonbHYX6oWpfNK+Bydc9agadhy7du/VjhCc9PnZKFqgiUcTJMydj8zCXKyhwqXFKExJQqK6iTZibgAtKVuTK04yFQnaevuSgLnzk5G1UFdAesyhEtM52I6X5szBnDkviSXgojt8K/Whl1yIwdry4CEBKuvyd/G43H8OHn+3HIOv+x0WN1KrCCBhu+MicVkvyWNSeokuLACXZi7G764bLIqq5egevtS2NReXg0b1ORAlfsPRMX1ginIKS8WNi674MZa88AIuH3Mm+veIRnxsDCmSsIBMcpQfDQQw06gAptsQspZ7r+wwLnhvHvqs+Rkcy67EG48OxfMrv8C2i0aJVgtQVyNEpsoBp1i+akkV0v5Wjafq1+Hgjk3aEUKQOBfzk7OQEak/K226EJ2m9iuDqjNhyAxZSKKFpbvifK2sMixKbbyNXGN6XmMXoEZikrDaSsISUqazsQXbZIU+GF49GYpLLhQyU74d28vFlgsvMVgijTnwn79DaI1QqzSEaUA0Qhe28sMH1QzBlpwccXV+CEFKE3pEgpTj2bgF//mP30vaW3KkCD3mnx8Ei/j9Q7HBao2CQ7GgwVaLPn1Pw6CzRoFsl74xbthrT6gDAchFbDELsVHnn7OYWGi6EyGFZo+tAdHm04CeQ1CXeAGqLr4QBYPOxYGSE6j+9iRch+pgP2pHlmk2xv9gAK7+7RJcdudtOMfyNf61/AXtKMFJW7YWyVlGF1NgyhYtQE5KOlTdSMMyhVxTiQGEQacUxYXJGNGkzuRjVmIWktfqbjhhZU3R+3JIZBKRm16qbhNJ98KlLdPKK2uRmbMg8PUnjEByYbG4EubUYfh5y74w1W1Di4pJtLDFd0hQnr5M0DLlBcVTcefDUycPvQRSZ75cgzVfSqXBJSEF5AA+p3JCKgYNUXMi5cBB2l8cQVhGodxduiBt39ZIgnzxd50ZXIEy6W48rdzSR/+AecuW4Znnl+DlR1JxprU/Rt38F9z9w3jEiGd9xc1PYuF9U2A2jcN9z4ryzy3D3xYvwrJfXQrF2bKZH5jORUihGayYUR9XhuiTQlS27sLJdVtRmbcR1as/gXPbdzCR0BxpkGUt1/4Rj93zEK77cyxmzJ6K2m0vy/zQCNFYa3QxGSlEVqJqNSRmJWNtwVyDGywBcwt0YQgmNmFQVoIiZGK67npLEFZWZiGKSR3K1iC3MBPz5wZQK89ghCnI0bIak4iklCKUsEnThbgId1CF+7vrUE4uKK95oFXm5fjy8wOaAAzGhaGVxkNAN1s4CAuEXHCEdMOJawskOEMGSbsHBsMnDC5FprjPwbpb7vF3UT74OvzOx9X3Jf4utslrENumik1bcrzuO+mmE8/o0sw7xJMrx7uPa247w3NjugchheYnY4bBUXwuGsptiKoH4n/7Fob/YRMun1+ExMv3wnmsDg3VXhP4kfRoTHa8jh4Dr9BywiBtHrIDDgzwDgZQlGVCkgIghGFFdgpy8pqrNM3AZzBCKcTpgxCuVcV0HqiP5nHp8rrojkcNLi/NbSbE5brfCSGifhNaa8J9plN+sPnzDB74z2Oy8vYKzp1BXHERWk6XjhXiILjoDtWaIdGRGwyUHxR2mZdggnnwsCq89GzCHWjAdC1CCs3ll44W/1rhtLlw4ifLUVzhQkW1GUU1x3BszJcYcu1ujB78NVxuF0x7X5P7PPT7y3Bib65cDg9hnawgyySUdWAgf5HBVUV9MYVISfIMDdAI05og95Y4q0enhIgsyNEsnISpSE/JwQJ/v5hxMIK0emRuY8haMg5aYLoIB/CffGqyi4rzTs2VpLnNvJ39qhiFdp/p4rQdTXm0GlF+GP7GCQmOKjaNBWWL2qEUkeU0dIgqK+XvPq5aIXpqhjUixVAzc6Tl9eg0ucx0H0IKzUUXXYRbZuwDHHGI/u+PUFOyB58e2Y6DdUdFsgE938GNlmxc+4sJePZvO/Diegf+ufRz/PdfXyFz0UbtKGGgWSZhkTYCxZpLzWRKRFbyWhQ0cm8lYGo6kCuHqel4XXGU1Pdc0rBMc7/J/MRcpJfq1hO556gPSe0LoiStLrLAkIVEyssoRnKwyyZBSh5hcPcxXYYtazQhUd1Fnk75Lz/XWvje/pdg7rNLM3+H68RO5e+uadx5L9mCNXQS7RySS6eq+2jnGTotM4BVFcBFpl0vVfJez9elmBbCujjw+ZfiSLTPVMNQ6mlhDVxQLRg/5EADdbQe0/1ocvbmr7/+Gotz1mH9J2ej4bydqJ/yMeIH9sTouiO4/9NKKTJ/+uMG7OgzCxclRmPalBQkJyfLGQVOKeTiygBW+PTttBc0kECeHIG6eJhTz5+fWoT777ldWwPy8vLw2WefaWv+0Dst1M9ArjNtVBd1iEsXWTnKywdj8GDqg3jMOzhA305WzmMHMVXub8SvvBCKaY+S+BjOIaBhyZonTkIWhj4qbOi0R+WQZS/+xzSiH19bFchjHZwqr7PRMh2EBgP4uMy04w/R7o36b4SFo1+H99r05yUQZV7CHYZ7CHWNTFclrDABu3btwur/bsCKtweh/MoXcOk5tXhwX4UUmUf/uBFl596O1GGnYcL4SzBy5EgZA6QjQDMDJBbPh9LOL23S8OcpWNvu52XCJzKhYRimJYRldowYMQJ33TkTSx7vj7m9J3tEJuMvp+GMax7EPTf8AOkzf4ykpKQOIzJEwtyCU1LZy+HPLDIMwzCSsISGAkOddpqwWCaMx6MPq1bPw7/fhF/cPB5z7rlD5p9++ulyKnCGYZjWQO8bDScxHZtmdaRMenInnlq1A9f96EdaDsMwTOtCMwiEm5iOzSnusWcYhgmMHmY7nMR0bFhoGIbpkASyXIIlpmNzyoXmzZWvouydexql0rWzkb/mv1ophmG6G4Esl2ApUL8Npw6Uwhne3Bp88kkh3Pv/pa15GTKgB/oPHYneI+6U6797C/iiZhtyL9+K7/ftwehJT8h8hmlN/Ic39+nTR1tiGKa1aTehKf14Ps46uzdiB47RclTW5+bisovP09Z82X+krgmhoaiWvlPXZK71zrKsE/i9lsb7pmSXGmYZoO15mC7nWaPlBUgqNb6A6ZdHE21O0Y+WibXB5mfTZoXO0qeuSclGqXyp1HA8LEKqnKWgM73wGegZaYT9bNqPQO/RMAzTNrSb0Hy3+SmcnXQhUK1NnG8x0fhFIP485K1YgR5xcYjv1VPdptG3b68whMa/sqcJLw0VmZwhoBjJKEKSz5v6/hUjrQvhydQFidbDFBopDMWYr59XnHNRaYCAbHQtWlgCj+Z5ygY6R5goTiimk3CjHyxiGcf2IC1pOmYVvIvLEs7GIPGYLa4G8Y8VLljhdrgQZbG0suM0yPXLew7j2bQz/MImw7QfEQlNsDgdTcbvEHzz6ZMYNlpYMyf3iB1EBhW3aqNFYgJPoLT+zbcx6ZcvaWuB8K/cGld2NDtABlaI/zLkp6/F4lcx+lSKtD1MoSkVArcgSbNMgqFaMsXzG1tcKoHO0Vxa81jhEuScJP5NPpv2J5jQPPnkk1oOwzCtRdht2uXLl+Phhx+G0ylazAZonfJXCKskFC6nW7a84RKfbpHo0yHW7Q5h5XwrBEgk+qR0Yi9qDpdoe0ZAfp4hQBrhjbSZoM6yKXJCoM3YHHHUgXCifmrxbTyxb0JClbYegE1AAqh3qplmia2EVmaRqMi1bepEoZRPLkFtElE5E2jgSKFGAkcNDXYODcN1pS4K8n2FejYh7mvWrFSRl4pUcd0+10vClaqFAG9yf8pr+t4ZhmlbwhIaGj5Ik2tSi2/+/PkesaFPWqd8mg8t1DBDlxAWRRGioosMfZL4uIR541aEBontThfclMR6aPvIiGFW5rzpUIwtZ6rcoQkPiYhY85nQudUIJ+qnoFlhA0TFKftrtNg8a2EIXSDuvVjcs8zPRGHWQlGarmUtMvV4PmQ+5S+Us1yrsX0CW1TBo4YGOgdB1+WNTrpCPNvAYR6CPZvQ91WUtELkF6BgfqZPvKH8vBxkztf6tJrcX1ijYdw7wzBtS1hCQ8MH//znP+MHP/iBR2zq6+s9IkP5CxYskOWCQUIDtx2KECNFLLuFsLiFRSOFRSy7HC5h9WhJLJtEpRAeWoVamo2UnDytElQpU80ZTXjU0AGBo3kaSUGj8DZhEUbUz+aEdpZRQA1iOkXYKjIEKCHufZ5Wc5LlIEoGjMGTmCSezRRfa8QfshTo+H4DJIKeQ8bbyYa+KWHufLEtGAGeTRP3RVaohM7p+V7zkVeknTPc/cO5d4Zh2pSwXWdRUVFSTHSxSU9P9xGZpuY5I9eZ22kXVpAbTiE2ThIUYbmQ9SKFx00vXol1SmTthKszOjKmTZGhVZuPhVmFogXujSeTSEO9/MTIB+neChQVkwKpaYs6sqILUDZY1M/muuUkNFJLbZHLFGmzXFxTgdiP+qnoOTQSQXJBhRU1tIU0ejbh3Fca5mnfa9miBSjyNByIMPZv6t4ZhmlzIhp3RGKii01NTU3YIkNI15nbIYXG5VSk8OhJFR5VjKRFI8sKsYkQalUnZ2Wobh/ZX5ONUmNFJCvRYJW97grSRkf5kIARyaL1nKH1DQjyF2ahMHO6WjasqJ+iVU9uIH9rR1Tyi0JVfloUUK+ANh+azbpUVPRF/mZPuFFDjdB1FWZBNxBJBAK6zoI9mwjuS+1fW4iFucmYr480iPC5BL13hmHanIiEhtDF5o477pDutHBnbCbrRXHZpYhIYRGfLiEm9CmXtXUqp1o2kQuN2vqFFIRFeTlI8Wn9EuQ+M7aoDa4XOWIquA8/bZkQKT2ypkhTioSI6YXDivopSFvmcR+pZUXKAKYGOaeKGgVUXKh3nyab5WmYnqndG5X1uMXIqjNU1jrhRg31QVzXWlU46bgZSA/sOgv6bCK4L9m/loOcZE3YJWHu39S9MwzT5rTbezRbVv8OF140EA3HT2o59BqNt8ufLA756fGZmVDwWQmmZL6irTNM68HDmxmm/YjYomkuJ6uOYtPHu/D5jv2e9Om2b7Fpyx58+MlurN+4E2s+2I68dz7HytWf4NVVG7DnO473ynRf3Fqji/osaUQn9ZNS48zhcsJkMat9mc54mMxOWZYaa9HWWigmNxrM4Y/bZJi2pt0sGobpSHQGi4bEg4TFYlLbg7rgkMhIlzUNoHFGi3UhLkoMFJf4gzbXiuxeUKIAK723xjAdgHazaBiGiQwSGRIUEhc9mc1madk4HA6YhBS5QdMP0YxOVpEsUnCizHGINzm0ozDMqYctGqZb0pYWzZc7dqK2oQFR5PoSwuC024UwqILgFP8cO1wOt+JGTEy0FJLY2Fj07dNHlunZI17sYoFLWCuxYnlkYqI2/N8tLRuzVZ0Sv8FuQ5zFAptbHNTqQJQ7XuQrcNB+pji4bbvhjDlLuyKGObV0KqEpKWnGtDRMuzNixAhtqePSlkLz9bff44nluajdWwx79XEoovIfPXo07rx7NtzxPfC3vzyFtLRJ2P3NN3I2DLJObHZhoQgBcTkdwiqh2ZlcGH7mENx2yy3o0aOHECsHzMKGcQmBkqIjRMbqNqPBKqwZs9jWYJGC0yD2jRf5deVrcP3o27BZuyaVy3D7ynXInqStEuuz0HdmMZ7cug73DNfy9i7B5HEPG/al/ZaK/bQCtH02sHTdPRiO9cjquwZTT2TDe1i/POPxLrsMT84T5zJeQzB8znOK0K9hKTD7VF9LJ2N91mTMXL5Z/HZOdA3XWWXVSZmOnajCwSPHsPf7chSVfYfPdpTigy07tFIM0z7QyMnH7v0lfnbHL3Hb7Htx76/n4Y577kWfM4ag8mSNtFZM4k/PStIhLBKTsGBkR7/Yl8RGusREmaNHjwoLRn19QJ/2icRGfgpLyeSiZbe0lMxuRVg8LihmE6xmBe6GfaJSfxJbT5zACS1tXZmE4oVLsFceQWX9mmLcfnsSVr1rzBUY9906DyMXjsPkJX5lwkKIzrhVmLFVO9bSGVg1M0vkRgBV9pN9rzssmrtfZ6Mj3afnWtZjzfIkrBTfOTVsukwfTZUlBrc//ixmLVyMRx56AAse/S0GDTtHvqPDMO2KsCouPO9cZEyfgpnT03DlVamI6dULhyurYBeCYZI+BFFMiIk0X0SiKZfMQmTMJiEgJqsUnB69eiI6OlpaPGTF0Kgyyo+yWOU64YQd5D0zwyLExypOHQOrJQ7xYos/wydNRdLm3dijrYtaAWXFSZiaLfJXvRu8oho+CfcsFZZeqDLB2FuG4stm4DrdDBh+D9b5WD9hQPuwJdE50L8r+b2PhB5prMsIzWVJI/DpGy9i02vLMOe++/HK22twWp/esNMM0QzTzhwoL0dJWQkOHjyE40Jg6usb1Pn7xP9CK1RoNJn6vxexTVHcUlCo8192+otl6sfR8wgSmihh7ChCtaQAiaMobjPsdvHpjBKy03jewb3r1/j88WPvu1iVNFVU+udhJFbB36jxYXiCn0iFyfDrMAMP49kl67E31PH3Cstncl/07UtpMrLWGwobW+xi2VNuchakkSW3i+WsyT77L5n9MDZvfhjjtH33LjFsD2Sdrc/CZLldP4aW74/fNchidA19dUuNXIeBllXkdRgOvj6rr3quYMc1Wiv+62LJ/z4DHsePRs9CHjcr8H5+x/M8ukDfmTzOZNVVStck7n2JOFeXERr5R+l0oa7BjismXSf+4JzyD9Bmt2klmmIDHh05EiMN6dEN2iYDGx4V2xptaLzvz1bs07YRtP1R8a++/DP4bPbP2/Co4Vj6foHYhxU/M5z3ZytEDmE43r4V+Fmj83UXDNastCJUq4AWTTQWWKBbCfpna7H+nXfw7up1WPnaSrz6yitYt/q/2Pjeeyjb/iUs0bFwi/ObTEIMaKSY+DOkZbJILGYhEpYoxETFyHWZLywcmrqJIJcZ9dNQH02dWO5hNyFa3EpdtAJ3lCJDPLmsbjjcDkD+oesVQV+MWwjMW+q1DPa+uwpJU8m2GI7rZpDB4q2+GiPE6LJilIUqEpDhwhpaiZG7F2LcOLVCalzHU2U5E5ix1eOqw8zZWNJI1ajcKoxcqrvhhDzO1irXzcXYPXWpmi9dhO/iOmGFXUYuQK0v6dmHVVfOia0zUPzws40r4EnZwtrSjk1l/NyMKmrFjnnqtW6dUYyZpBIkqPrzEYK+XPy3hk7g17InhouHfdnyNdr5ycV0O6ZOCnLcJqHna7zPcI4T5FlshufZevcL9swpP9h3NgNLt2rXJKzXe8T9dgmhoUri37n/xtLnnsf/PfE0crL/hn+++A+8+fq/YbNFMsxzLB5Ztxu7d4v0wk14426/Sl5U2otLbsJNJYsDVNyGfXe/gBFPTA4gSGFAwnA38II8jkjrzsM3gQ4jBWQy9szRzynS08BH/mXPycDru19HxjnaesQEEkamKVKunoQf/ehHuE6ka665FhdffDHOPutc9OrVR/bHkEuMIHELlkhUCPp9Gz+9qJYPmUFCe+R7NGaTS020r08/y0o8iWKs8VTee/Huqs1YPlMToYc3Y3NI19ge7N6chITm+K/I9Za9Tq3AhAg8rIuDDllW4uru10cjiPLZJ9bhHv8I71Ru82Y8LAVLJNlqFpYY3dNlM3C/PljhvJHqpw8klMsxU7S2s95NEBVhAPedbLlrLX2fwRAG9GvVziVFo7hM3M9wJCRtxm5xLdTvRYNKiklp9uwW9e51YquB4fdg3u2aEJEo3S6syqDHjZCwjhPkWQhB1F2cnv2CPfP12nma+s4Icb9dQmjc4u9v6rQb8MtZmXjg4YfwwLxf41f3zcGdd90Gh92ulYqQCdfiJpTgG0MFu++jfCDtTtyZBuR/FKrmnYDH1j2CsW+8F8IaCcK+Pdg29jx4dEEIRcYEbdmDsGQeegIjXtiNx4zbApZl2huyrr/athXFX5eIP9RvcPjwYRw/UYW6unrR8LHBbiN3rllaJaGScR5BVVBU9GUFLmkNSYvIbYLFLfYz0XyBDXAiSpbxQJX9vCQsl7WbgCqQpJWqCMm0VVQbIdxnAVrmKgEsnaBl6TKm4vbmuOA83K62xD0pSOXWCNHyXyfKL52nWVf+LiV10MLIeZpVRC1ybUu4TJp6O4rLlmBN8Qxcd08CkkRFvaSsGEkB1JnK0nchRen+iHqsWoGmnoU/zX3mXrqE0NAoHi+qa0Rv+5GPu1lseA9vjE3DRE+Nvw9SZ0TGOROl0mhuqiCcMxFpY9/Ae5EqDQnctifwUCgTYt9HyN92E64NS1T8LBJpCfm75bQyK7wuO9X1R/l34w1swxOTRb600Hzddc0x2ro61H9SXn4Ie77Zi69LyrCz+GsZGPD7779H1Ylq2EXjJzoqNqi46IksHyKQW4/y3G5VsKT1Q30yQmysQnzsznq4lHi1oBGq5DWXDbnNMNJYW4Rwn+1dL90xSfMCdcjrLXnvfntFK35zUoIsq/ZHeC0Y6ida7i9Cnn4crRT5/snF5q9G0j0lLAFPOf/+ilBoxxRt93uyl+LJgG7AJKGb6h3ufVfcg1zyQ79WrQ+JnqN+r/R8kx5+GMXSgpmEqUmr8PCqJEjvpD/0XRTPxEwSJdo52HG1vjH9a6FnG5JQ1+chwLOgZ208j+f8QZ65fp6mvjONrmHRuNxY/tI/8dyi5/H040/jL08txLP/9xxezFnuGRYaHlqFSpXoe9di9+sZXsuCKndowkMiItZCGjXNRlhDu9chLX9y6IrcaPWEjRCOyeIuPO5BYLFHgcS97xH3LPNvwrYn/i5K07W8ICw7zS1I5tOGv+OJES943HU+FhUjIYG46ppJuO666/DDH/4QqampGDNmDM455xz0799fus2oDLm3KAUSHEq60Pijiw69oGkSlguNOiPMLiE4FiFANFw6PtCvQ7c+yG1GHh3f6ofcJZ6RZcb+nXELsXveVt/3bwxMyt6KkWtmq53AIs1eMxJbtcLD71mKlcJS0o9F/UQrDf1EKmo/DlaN85xPFArQavYrN3s3ZjQ6lgFRSVNlSB3S60Wlev+TSWJXuo5xWDVDHN9nR9pOh1avc/aqYi3fH7VPBAvVaxi3aobnXtXnK+RKs2AmTRXCJQdbBIKEiDx+ulst2HHpuoo119VkPLtGFvbF5z5DXZ9OgGdBz1r8NnbPVu/fu1+wZ+6XH/Q7U+kSL2x+d6gCDSbV502B1NQgauq7CAUFhZhzy0/kttBQ630xzlv3OjIgWv2T92DO7sdEVauyb8XP8BCexutaZwetT94zR618jft6lUm0/B8CnqY82v4erpXHC1Q2UJ6ArI/JAVxkMt/3+nwxHs+wLO/rCSEpBm4SovEY/M4fZH/apl2TUB7Ps/Cn47ywSR3oWluKfuUmGgwgamVRUT/+5F9x35w7pWVAlf1bb72FLVu24IknxL21kKKyb3BQWC8WYbXYXTa4xTlq6uxw2d1w2G0o2PgRMm77mbR2yM1GjSF9uDJdD+XR+uDTB+Cmmekwi2unoc80txmhT6hptoj7ccTAaa2HSXzGijxHXIO46yjEVe9HQ/zZsjzTEREWwOQ1mLouwqHebQVZKm34QmrXcJ2JP0xymMmYNuKPlqJ3Op0OOBzij1v7A46IczLw9CMlhtb+Bvz9iW2ila9aGZQmi3WE6oOR7q0RGNaoLj4H543VFnX2fYMSBCgrr2OsOI3fWZrrlpPc5B1oQClSk0Rc0+tiv6eF7LLrLDAkAkcqjmD7l1uxffs27NixA6Vlu3Hw8CEZMNDpsgtxU2M7Gd1kxmV9ndBdZ/RJGJcJxeySlgxBfwkOITTmWBaZDgvNxtB3Jopn3N8xRKatEffbJYTGIQVGbRk6KAmBob4Zh93RrEidxDkZczDiiYfUvg3ZX/MI1hkr6N3r8EjQyl5YAdISCWRxnINhI7bhiYf0ocii9N+FlXHTtWrZDSsMI7yoX2gbxp7XSIGQMecmvHG3X0UvrI0VoSr+c4YJOXvDIKDN55yM17FOiGCJcbQEIyGR+Mktt+Le++/D7Nmzceddv8TNN9+MH/94Ci6+eCxOO+00KRSBRMaY9FFnQZHWOwmPsMqs6ig1ErkGp7BslJ5aIabDMSlbdqqv8/XdnVra8qVYcb9dQmjUUNBkyVCoaLJk1EQva+ouiciZgDsfgRSEFe+9gbFpE/36RM7BxDSjtWHo35GupuD9FxMeEyKFJzBZs47uLhEipheeMAx7PMeZLPtDArqoJjyG3eseQYkQG7WsSA8BE0MaKOpoOHGh3n2aNEkm4NqbDIMBDO/4TH5iBOYEcZ8xgE1YFnazBbVOO2iWZZNZQXzPONTV1cFkiYE1yuyToqItMkXHWGWKi4sRguSCRYiIUxyDxIeg3zb14bgVC0xWseyIhVs0tBosLljd8ehNVo2lRpZlmI5Al+ij+bJkH5wmi/hj1KdTd0oLh0ajffXlV/j1XTdrJZn2oLv30ez65jucLZ6Bw+6GzVYLm70OdmFdO2xONNQ24MUXliDj1lvx3fffyoaQ3ieju8P05dP7n4ZJ11yLKCEqLtFo0qeeoRc2SXSa34himPali1g05C4jt5luzThx2qQVuPy6B2TfDcO0JyQcG9etR9G2L7G3pBTHyitQV1MLpxAa3RrR+2GMSR+NRp+UdAuGYTo7XUJoqqtrYBd/wE49OZ1YUr8KDw/Yp05cyDDtibBG9paWYl3+Wvw3722szM1F7mu5ePvtt7Hls83i91qNmFjffhkSGP3TmPSO/1CDARimo9MlhGb//v0o3VWM3V9/jd0lJSgtK8PoZY/jzF8/jIa6eq0Uw7QPFiEYV0y8GmmTr8PEiRNx2aWXY2Ti+Th94GDExMQhJjrOR2T0pIuNnvRpanSh8V9mmM5ClxCaW2+cijt/Ng2zbp4h35n5lUj33vZT/Oae2/G7rFlaKYZpH2iI/Zo3V+Kzz7egqKgIBw4cQE1drTr83uWSrjMSDH/rhZLuNqNE60aMFg3DdCY4lDPThTk1gwG+Kv0G+/btw8GDh3HyZJUMu2xroNmazXK6//3f78VDD/1aTkmjDwbQRYSgZUr9+/bBhWMuoNEBMoyzOpzZLcM56+UYpjPQJSwahulIkAAMHHQGEkYkInHkCJwnPoclnIczzzwbffr0kW4xGhRgdJMFSsHeo+E+Gqaz0amF5rMtX8j0yeYtWPHam/jtn/8Xcx56DLfc+5BWguneGH7e0tukTkBJiwrFghHolXZrVt4NNjveX7Ma772fj6LPd+PwN9+g+tBxuOvjEWWNQ2VtPWJ7x0oxiYmJQVx0DKLN0egV1wsNNQ3Y/+0BKA7AaraoFowQHDLELFFWdSi0U1hHrDNMJ6LTWzR6COeH/+d+PPf0H5Hx06m4LyNdis8772/AW2vfwytvrsHSf72p7cEwbQu9zzXm4kuROOp8nNYnWmSYUOuqxL6Kdaiq34F+URYMaThNigyNkIRFCKDVIvtzaGDLgAH95TZKJDIkLhRegD6jYtT+m2DWDsN0RDr9rzV1zPkyhPPaTz7D65s+k3m6+Dzy0ANY8OhvMWjYOXC6mnq5LR+zqLVrSLPytU0dkvCuN3+W2NZoQ+N9UxeVadsI2j5L/Ksvp8Jns39e/izDsfT9/AinTBeBLKPeffuhV+9zMODsgcBZQ2E+OwkDh6YiJv5SVJpjccxyWPYVDRgwABUVFSjeVYT4Xj3Rq1cvGUZgyJAzpAjRHygJDg0MIOtGfU/MIcswTGeh0wtNg92Bmnob6uxO1NWqYZt18Vm59h288vYa0arsLaejaZoUZJeqHbHK2kzkTGmvCjFQZR4OTVxv2SIsKMpEZtGCAMc27KusRXJWYgBBCgNxjtQpwFp5HJFKk1Dif5hwynQhaNTZ2lUrsatgI44Ufw3HwQqYKivQG3WwOqthsSrCKhmAuLg4OTcffVKymBTE94jF6ORRckJOh7BiaBJOEhayYPQXPcmFFh0bo52NYTo+nVpoqNKiEM4vLV2Gpx/5PZ55WO2b0cWnwekSLT+nLGezqyIUNmnTkYkilERc+Z8iAlxv2ZpcIH0e5qUDuWtC3UgalpVmIyUnL3JhLS1GYUoSErVVJMzF3DRtWSecMu1G+3yhF15yGeLO6IvjJxtgqziKqm8OoPw78Vl5Aj1NMUJw1IZPPAmMEBDqpznzzDMx7JxzsWb1f3HJuItx/vnny8EDBPXLyE9h1TQ0NKC+nt8PYzoPnVpojCGcn/rrM3hm2TIf8cnJ/hv++eI/8Obr/4bNFmGkzfw85KSkY2qCtk6t8kauH80SyfduI6OgbFGqVs7PJeVzDN3VRceYghwUIitR5OtWRcDzhcD/ekWFKnVGZCRMlUoTuopNmIr0lBzkNXkiP0jgCrOQEcocC1UmxHOdNYueYypSU/3cguSGS12k3k+T+/tbeYEiR7U+/U8fjLPOTUT/y8ZhwOXJ6DfsfPQ7sy/6xjcAtW44+jUgNkYIjtWKIYMGY/To0fhq+5fYueNLZN71S5x75lBpvdAcZ7rIECRK1EfTsyfPzsx0Hjq10PiGcFYxis+Dv3kQ997/K9x1VwYcYfm0tcqeKq286VAK5kKtt0XFlZiLdI+bCljgqTTFPguAFTKf3FcmGWBMLZeJwqyF3sovMQvJa7VjCAuiaAq5y4Q1IQ6YqbuyllFTP9T5jAS7XoGoUMURVOEhERFrIY2aZkPXX4r03ER5HYG9b8HKhH6uRUn0HAtQMF88V4MC5uflIHM+3Ws4+y8TZ29/9hbvgPXIMdhranDySCWiYypx+rXvY+QNhYgz22Cy90J8TCwGDzwdA/sPwGv/ehWXX3YJZt74U0SbrfKHrLjUEWf07o0UHZfL0z9jc3AfDdN56NwWjfhD1EM4Pzh3LubeeVdA8RG1jfwDbRqtsvd3I5WVoMhYqU8R9kdxqbZR7LNCq+Cl+ypFWhESoztLHiMT0/VaL2Eu5mcWwnMYIyHPZyTI9QpUt9lUTXgSQEZN1sKAKmAgBUke/1YkJGBugXodRUJoA4tNgDJNPFef5+i5v3zkFWVjHj3HcPdvb1xO9O4/CPuqbKg/XokzqqNgdsVjpfNdrOr3CfbHAQP6mzBkyBD8Z1Ueli9fjt8/8juMHpUkBSZeCIu9oU49lBAXGhSg/36pb4ZGnpGwMkxnoVMLDQU8u+jSy3DlD6/Fj2f+HD+8/qc+4vPUk08j+6/P4oUXlqvDSMNFiMCK7CI/KyLT25lNSVoebUkE52t0vflYmFUorCnVgqCUKNaFWeAjRj6QBVSYjBGN6uZEJKVoizqygg9QVl5Hio/10YhGZcK5zzTM0+6vbNECFHkElIjwe0lo+xAGV11xCW65cSp+ddcM/HzqFCT8YBiG9ovDNR88jYS/P4R+9Q2oOmbGk3/6E5LPH4kH7r9PaJNdXj+JSD1ZK1Z1Qk1KlE+WDS2TK01aOuqLQQzTKejcrjPR2iMoiqbiouk5RMvPID6Tpl6PK6++BheNu1gIUARCI0iYOx/JWRnqaC1ROSUjx094IkQ7hqd+LVuEBTkGC8dIM87nc72yvyYbpcYKWClFdkqwPhjdrRfIzZSAEcnCasjQ+kQE+QuzUJg5XS2bv8gwoo36hQqR4m8WBSsTwX2q/UwLsTA3GfPnajLTrO+lCSFqRWJjojBs2DBcfvnl+HHaj3D7rbfgJz/5CS668AKse/cd3HvvvUhKSpK/Y/qOSEioo5+sl/j4eO0oDNP56dRCU11nk3+gLkoU7MzlCCA+LrGdgqBFGiSKWtHQKlh1VBYMFkLkQ4HVY5DbSO4v+xb0ij0N0zM1F5A8bnPO573eRXk5SPFp9RPkPjNaEgaXk2kBkkoVBDMG0pYJkUIWErVrmVIkREwvnDYCxZ7jJCIreS0KdCHQCVomgvuU/Uw5yEnWBE7SGt9L2yHFA+J3KBpAVotJisc5Zw7FLzNuw7QfT5VDmmkUGSXj1DN0HyQ4DNNV6NSTar72n3zE9+4nQzl/d+Agioffg8lVryG2Vx+Z5xItQzUYmhOfFH6CJX/5o7Yn093581OLcP89t2trQF5eHj777DM8+eSTWk7LIcEgEaHGD3Xo0zq9F0MjxiiPQjrTy5gkLrROZWlUGZUjq4aWGaYr0Lktmuoa0WoULUKXW0778XrVMRltU28lUsjbhqSncO6FN3OkTabd0d1hJCR6hz4JC33S71MXH90Kp34Y2kcXHIbpKnRqoaF5oT7ZVIBPPynEpo8/RsJfrvMRH4r/saT+PTwx7DhH2mQYhjlFdGqh+fPDv8bTj87DM398CP95eQm2bXjHR3w++2wzLn+VI20yDMOcSjjwGdMtaY8+GoZhVDq1RcMwoTGMNJTNKYqwqfbWmRRtdKLWj6J/MgzT+rS70NTW1srW4yuvvIJVq1Zh8+bN+OSTT7Bp0yZ8/PHH+OCDD7B+/Xq8++67yM/Px4svvoiNGzdqezMMwzCdjXYXmp07d6Kqqgq3/GwGZtxwHS67ZAyu+MFYXJkyFleNvxg/vOpiXHv1xZh81QVIOLMHDh48iG2bXtf2ZhiGYTob7S40u3btwi03TYPJYgVM+uld9IYlFIWm9HeKZZEsbuSv/QjnD61ETFStVo5hGIbpbLS70NDLam7ykys07QYJi0NojEiKHRCfcNvEuk1+OqN6Yt/+Q+g95Bptb3/y4RspMtzgYbSfVlZOM9/EfuGUYRiGYQLS7kIjX0hzkbg4sfwf74q0Hstfek+kD7F8+UciFahC47LJaTh+csvjuOlnv9D2DoQ3UqScjcQwJ1dYJMxFgVIA/1lTfAinDMMwDBOQiIVmx44d+Oijj+Tby82BBIHmJCMLJiNjPG7LSEHGbZcj49ZLcdut40S6QFgzDUJs1Pdehg4dKt+YDgeaWDKzsK3irjAMwzDNISKhIZE4duwYDh06hA0bNjRLbOR0G9JdZseKFR/j5eWbxGchVrz8GV5++XO8/Mp21X3mUicVpOk7mo1P9MVgcVIMbjRJGRal+u/jVyZgVMdA+zEMwzARCQ1VoBMmTMAZZ5zRbLGh8uQ2IzG57dax0oK57ZZkkUbhtptH4NabhwtBo36ayGevpVgl3nDG+tT3qlvNG9FSFg0CiUUictNL1X1EajyjMR03QFTH/IVyVuLg+zEdDQorIf6FxWKSVjM1gihMMv1G6bfOMEzrELHrjP4gWyI2VAmbQH/gNmHBfCEtmJf/+ZVIO7Hi1a/x8qui0paDAdRQtU0f2zvdfWJWMtbq4YwjiWipI4N/ZXrjnQQiWFTHxCSk5ExBKo8Y6DRQeGT6DuvrvdMTUZhkItIGFNP2UN0jG6qiDtHRJyIN173eldGfgf486FnRJzWgTvXzadbZ6aJTU1Nl64/EhoYsh4v6I3HCRBbNzQm47efDcOvPzhHpTGTcNAS3pQ8UheiPncQoHLyDAdovPnyAqI5ywICCFciQlRe7zjo+JDAkNrGx8fI3LRsOIsXF9RDfq9aQCDMx7YP+rNV6RG0Q0LI+A3Z3hp6B8bnQs6J1+m3r+aeKZgkN3URBQYFs/ZFlM2rUKG1L08gHQFODCKF5+V8lworZg5df+0ak77Di9f14+Y3D4qGow5yJZj+gSCJa6lBwrZQmIjY2EdUxYW4BSrNTUFTClk1HhwTFZqN4RWo8fpvNJv4orTJODE3TT7/VcFN3xyi6bZWoLtCXjegVqbFsd0w6tKw/D/rsEM8n0kk16Y+K3GVkyZDIkBuNbiRcXn75ZaT/OBlWc41Yo1YIDQ4gJRZ/rHL+KVoXVoLbgv99cQf+53/+R1pOgaFOeooOGWToMXXaJ2ahUK6Q5aOXM+7nfwxanyKkRCVzLfW3+JXxOa4gcy2U6XnSjaZlCIunvawrJjgkANpvk37lJmr9ij9I8cN//Mm/Yvbdt8mol9QSfOutt+SkmmecPZInl2VOCVS3GkVBX6eGEFnenZmIhIYeAM1H1hyR2b59O77+6j1EW+ywRJvQMza60Ygyl9MOl/0E7LYaDE+ehlX//RSPPPKItpVhIiW00Pz6/lnSKqff9erVq1loOgA05dSQIUO0te6FLjD6JwXLo08a6Xv66adrpTonEbnO6Kb79+/fLEvm04K1+MlPb8XUabdh8nU/Q8pVP8FlqTd40uXjb8TYsZdg5/cDEdPvUjTUH5WtTYZpK6iPhho71EfDMB0N+m1SnasPUOnMRCQ0xJgxY3DVVVdFJDKEy2HHyYovcGTPv3H8u3WN0tFv16D6yGZ53N79zsRb/92B5ORkbW+GaX3IHUG/N+OoM4Y5VZCoEMY+P/p9doWw3hELDaE/kEi4YsINyH7xEyx54wief3VfwLTs31UoLy9H3tvrhHUzFuPHj9f2Zpi2QPd/R/57Zpi2glxnlHS6wmATjrDJdGFC99HcN+dusU7vGACrVv2H+2g6AN21j4YGpOiWi95Hoy/TM6GpuDozzbJoGIZhmNaDhEW3YoweI1rutq6z5iAsJ+zauc2QtqK4SE07d2xBEaWvNmPHV5/hqy8/xVfbP8FL//iHtjfDMEzXhfpidIHRXWUkPLRsdKN1VtpNaJKTErDli6886YutRdj+VTG+KvoapXu+w95vDuC778tx8NBRVFRUij0UYUJ37iF9TBfEb6JWSm0y7RCdJ3URyvRPLTsk8tr85vOLZP+OjvFe5L0av4fU0LNx5M+SZYJ+VcGeUzs+P11g9IFWdF+0TEJDUuNw1otPmgfSDje9ckiZO+YiKWak33M4xd+2/t0YvpB2d51lZPRCxn0JuHXuFfhF1jRs2ncz+iTeCNvA6ajqewMOxU7FlzWTxMMlv2Xn7wRjuiAp2SilP34tFRjfFm7HiikwhZHHZOqsGL+H0nQULQh+3/l5RcjMTEZuJ40hYhL1odUUAyE9YsUhJ+iykwHU62wMTrzG8BzmI2lBYvMaP635201JQUpRiedY7S405r4OILoWOK1OPLkTOLrfhuGnARcMAS4bBlwzGkgdQZelwBXBaIv8Wb4K2mGRat/ULNJM69DuP291zjt9YtdTgah8s5NzsbC7zbVHU0MVFiPwnLllKClKxvRl05Gcu6ZzirAQGpMMfW8Rn+KXbQEa4IZi6g30G6uWIRLSMHdFNoSiRn6frfrbTUe6+B3qut6Of4k0544Jw84SOmOqFk9JJNNJbC2uRlGpggNHxM9hP7BXpO+PCGUmoXGSfRgGovJeUJSJzKIFHbACp+lrDMLC0Tq7HrIlOAuzZqWq7guDe2eWHqNIbJe/Aa3sIr2s0eVjKJ+akeud4khQukiUNzSkqGEVrF01dV6Q1n3+LIO7STuv37WnLsrXrs3gggl0Hx2Msvw8FKUkIVFb94FmZU+ejjSxNQmGwIjBnnegfJ/nNAv5QZ5JGX1PlEfPT8sMlBcxZq3RrYgqW7HCKmwas0gNNgdqHH7VuFF0A16nX51E96bdk9c1Kcro+zXztzB1uteCbDehUYTRRxc35Awr4mOFNVNXAbgP4/DBA9i1uxoVRxpw8IAdhw4qIpFhGL5FU7YmVwjoPIi/r05rGjOdiMIsJMo/QEpa4LvCIiRNXyHjHqXIQmVYJCqppBWaS2OFqOJ0l5YoW0xlKX9tsiYKVD4LmK/GQlox3/dl5cSp6UjJyVPPJf7NCzVBLIXECGTVpC2TM4w3cjXRtc8rkNeOrAWAXKbt1CoOcR+nGsP3kCguO31F4NY41Q/J8mElQDxGrY4I9rxDfA/6d6zMQ0nAZ5KPhRSqRH++WQtFTqC8yJF9M6K2pt4Ehd4vdlvRQ9SpsVYboq3+LxwLQU0pQklZsO8uDdMzCz11JT2fwkwSYh3ab4p4oFpcrtL5wJQMISoR/hYSkzTLKr8dLRrFLSfHbLDZ0KeXG2aTEBtXDWwnq1C6twrHjjegttYuZ9Ctb6iT04L0iO+h7RyKMkidmZqABPVX5Hfj4uF4lNnYCgySL9U9UHm/VoDPura8iDoc1f1UHynl0wSdWvwaebBw9tMwXEvqItGS8Dk/c8rw6aPRJk+lgHtpxr4aim1kiFtEk7BSmHFqZoqy8/Sy9MdIUHlke/ITKL6RXNIg8cjUZiMXrfccn4qhMWnLROXgb9XI1qjWujZOCusJFui3TAS7j47wOzR+DwXLgngJqH4oRM4U9foTswpRSHVEsOcd6nvQv+Ogz4Qq+BxMEc941poRWFFKv41AeZEjmt3yrTCFRjpbrPIVMZO4b4rtZaW61IdSFBcmYwSCf3dp83T3mlp/Zs8zXJX+DPQHmpCGZeSFCXG8gNBs+BCWlfi9tp/QCCxmM8rLxUMxuYTQNIiHVSf05yRiohwYNAA46wxgYD8FZwx0oW/fATjzzLO0PUMgH4r2xyFvzHjjJCaBImYGyxcVv3h4kUXl1BFfQPF0db+1maKxRS0X+oLWIlP8VGXMnIBhNwPtR/heywpxX/rc0ExnwS9uEf2xBvTthEfa9EzkCKWhjm2fiiEgacLCz0XGwmJtnX5PojU6X7OkPJZXOAS4D60O6vBQ/WCIfKsopaIKFXVEqACIYRHomSRgboFYXjEfScULkJhI1m6gvMgxu9QZ7ElsTDHiX2ndCNVxmWHz9/xQcEaPGzHId+epKw31Z1hE8lsgC7IICxYUeYUmyuQUqikUU+zcFlAYALPFjO93V2BfaSWcx44Cx75HfP0JGQRt/XuFeHt1Lt7f+Da2b38fC1/8FC/lFePBP7+B/1u0VDtKY1S32VTNZFZN4yzdZyBbHgEiZgbNb0ZUTg9CTPQ//rTp4ihkuqqroQmyn/yxUMtK3ZQwd77YxnQatNhGeXorxej/DoT8w8/CQs0XLt0ZcskA/T6KpmBKUXgVA/1mknPIntZJFhaUumPZmuLGxw9EpPfRwZD1Q5JR3TX3WcmIwM87nO8h6DPRPBRC5OcuW4Fs6b4KlKfuFhFKtLBeRMUOhxAb0UgXNbfTZIHb3EMs99QKCcT5yPWXPH8uEkJ+d9pzyDDWnxr6M/Dsp99D5L8F6WUS1lW7WTQkXwnnnYUd26/BV1vG48vtE0VKRcGmkXjk3p4YNugrDB42CHPuvl6mWXf+WKYH5kzDtpJgl0n+T2EKZyWqppxmGotmX7NaDQzTeoiW7Iq14i9Z+21mFAftQ1Ch8mRBq+VF8QAWRxqmC61I8a8YgiKsmmz9KLRMl6P+nWTkFmn5TRHpfXQkvG51I6qLvQRTAz7vcL6HYM+EnnGy9ozJY7JCtPYD5WmH8UN/fyYgVtIWE2IQJT57yawYUdys2GDedJ+3zzBxAYrnl2oemtDfnSoCjZ9Po/2oA2wtXXczfgty8NMy+ca+QunJp/5XcQtzxu2mf1uff/7zFWXTpg+Ujz9+T/ng/XeV9evylXfe+a/y/vvrlOLiIuWxx/6s/Gbhf5S/538p04trtys5/92mbCoqV26ds0w7ih9rMxWkZCul2qpKqSL+tpRMYd/pyynZviWC569VhNWg7SsozVZSkCly5YrhuAI6N1IU9RC0n75MGNdbss17vtLsFMP5mIiRP2uX/H3T4p+feEY5caJaqaysVKqqKpXly5cr99xzj/LYk9lUsIMifhMp+u+xa3LgwAFtidHpCs+k3SyaX/ziFmFmXY0JE67B1T+cjNMHDcHRoycg/sixY8cO1DfUo6HejmirWaaYKAviYqyoCTGFe35eToDWHZmEKdKXLZW5YC2SDRaP2rkfLD8Ny2S/jJpnSsxFuqfzTuwzP9PTqWjKI29lOKgjPGQHmndkQRiIa1nrPV+GMGbZddaNkW+2T0FR+jzt98gwnQfP7M1le/bhoYcepM4UWbG1Ja+99hrGjRsHl7MWDQ0O9DttAP756mv4rnYYhiedo5VS6dszDp+s/wIvP9/Nq1nyhyYWYz6HiG4e9Cvn2Zs7PN05wmYwusIzaTeLxsgZZ/THoUP78N33B1BefkRYNVVyuhmH3YkYa5RM0RYrrGYLorrAzKWtQf7CLBQGeyGNYRimA3NKhGbixMky/ehH12PK1Otx0UXjEBMVI7fVNthlqqNUb0e9zSHzux++7/lMycnE2lM5tQnDMEwzOSVCE4gRIxIQbd+H0i271PT519izdTe2fLgN55/doJXqTlA/knG8OrvMGIbpnHQYobnxxhuR8+yjsi/GPz3y0P1aKYZhGKaz0WGEhmEYhumasNAwTDP44osvZPr888/x8ccfy7R69WqZVqz4l1aKiRQecdaYrvBM2m1482tv5GLwkHNhsVihuExycji3S4HT4cSRw1U4drRCRo5zuszo2YsmjavDFZdfigsvvFA7AsNECs0BpbWlWnl4M4kM9Z3Nnv2CniP/Xbp0KXbu3I2MjF/IdYZh2tGiOfPs4fi2/mJ80zAOJXVjUXR0LPZUjsPWfZfh0RcnIOvPE/HrhWMx79Ez8dT/OlFbAzgc3XXEGdMZGDFiBD74YKFMf/jDH5CXl4eePXvCZqvVSjAMQ7Sb0FhEK9LhVtBgFysudZ6eGGG4VFa5cew4RdsUf5wWdUbn+GianVQd1hsKGVVTlPFPbRLD3YM2wVxbnsIDnUvcU5AZBdSASu11LUwwKLTF2LFjUVMjWkcClyvMgH1Mx6GsjP5vXdrimJ2UZgkNuQwiJTY6BuVH3Ph2P7C/HGIZ+O6Agi+2O1B9TIgMBe9xi2SqhzVGgdlikX+w1dXVQS2btGX60F/DVPxi3SeG+ymhNcWIYm8HihyqTijafWhPgW8a+p2tWrUazz//PJ555hn87W9/wxtvvCHTiRMntFIBoBkeGjUetHemIpwVOV+LihmwHSLOM0sPytZF8EaqNCb1HvVnQSlYQzNYGZmfmIGMRJFveJje8hRhUsv0I1iZYMdsREu/J/335JMCXK+cwsjv76fRvrSfoQBt9/wm6e/P/zr98ozHSxXnMhSOWGhoXjLq+HRHEM+foFnVjh9y49A3Lhz+3o4jhxrw7bc1KCk5DNiF6riPA/XHYYmzo2cfM9wOp2gNlGH5y69g69at2lG6J8nJ8ETD8yCDX2Xy/GenkClTJuOuu+7Cgw8+KNOcOXNw5513altDkEKNhxKvqMiwFdpyU3j++CnKphq5cVmisULQRCsxq8vFL0qYW6A1LLVEMXUoAJyoRKcgXQuCVor03MSAFW3AMuJ5Liii/AIUUL7eqKPyMp/OQxEmA4hBsDLBjulDK35PPoH4FJR6orZ6oRhGmZne0MoejPuKe0hakNhMj5AQHTk3pHasFenINTyziISGDnDs2DEcOnQIGzZsiEhsKATpsSNVOHigBocPn0R5+Ql8820FKg4fFBuF0NiOwuSqRO+edlgtDcKasWPX7lK89e83peBEhFFZPYqrtYjzvdvoh2ZsJXkfcOOywVtJ+nlEkr9c2tc/qqYg4DX5vv3f6I9DI2nefCT7hIAV+y2g4FfTtXWVxtcic9V7CRLFM/A+AsP1Noru2eLnKwh1jLAilXZc7HbyD4ciHenJhgB9pcUQtUCA6egDQNOu0wwRxuBWep5aQHvRl6z8rk3+QlGxUcCmtGVQlnnvnybVLfIP+hKsjHj2hckjPPkjktX4U2UlRd4Je+VU/0VqdFMDQcsEOaYvbfc9JaRNR3JhMbynLENJUTKmLxP5jSIQGxD3QCESGkcpDgP5ezTESdLCA+gvmUckNPSHP2HCBJxxxhkRi42joQ7Hj1fh0OHjOFJxQghNFfZ/fxwNtZVCwWoAZy2irXbERjlRXW2DzW1Gjx49cfEF43DaaadpRwkHUSkZlXUtRbTVH5uoqBYAK2S+OjNyBvTY7cboloShrIylTjGztU0GfNx3OdRyCRRVM8g15S9EliH6X8AAnBKaATrH+0MPEhWv8bVoG+heAkbxDLYPXW+w6J6t8XybOEazIpW2L7W1tXjxxRexePFi6TrT09///netRGimTve2Lqm1mT5dD+lMAmwUXr9l2p6ailTx/RTKmPl6XmRut06PuGeyGhoHgFNDNyePaLTBgLeMFAtDYLTEJFWAEkYkqyGfZa4oX1zYSLyClQl2zPaiLD/PEGFTQPVFMoX+TkSSjKqp5QciYYSfSIWJJ1hafsB+qYhdZxScpzliQx2mx4+eEBZNBQ4fPIaD3x/DkUPHgPpq0QSslUlxNcAmBOnIEQca6qJhjbKg/+BB6NVLDfQTFjJKpqisqOVLreIpoh3saU6IikoP1COjWaZ4g/40ioppKBsq0qb0fdK5qMUdhGDXRPHIc6YEtZaMUIxv3RymCTZlBD11k5eg1yLuJVj0z0D7hIru2RrPt6ljBLvWDkZKSgomTpyItLQ0T6L1+hChLTyI715tOeYjjypMvVaQURG1eyb3qPhPNjDkd6JXHulYQW4j6fbonlMTUeTLQH8DZYsyRHXn/e0GIpwyZAGtFVanDCiWuhDF4nfZiHDKtAeywaH9LYlEccrmGwKSyWclwwZrUTVDKo0Qo2ZFARUW2oq1Wrhqug6DB0QQsdAQJDbUqoqOjpZis2vXLm1LcGpqbaisqERleQWOHTmOivJjqK2shMVZA7OjGiZHDRx1DTh5oh7HjzmF4JhRV2/Dt98eRN++fbWjhItfXOsWt4DJ9NQWjVBLcgq0c5XCE8wwIAGuSZqXZDFkyB9ISI+QbDGI1kg+teQC/JFEdC0azdlH0hrPt7W/o1MPDVyhFBby+xQtR2p9etwshNfVQpZOdrZoYJDSkHst7MiaXZ18LMxN9oZc1yA3bUZuOkpDTD4bThmdtGVan1DBMkwXDaNAhFOmzfHpZ1krJLQIeZ5GsWq96XGtKAKx1woLRCmKC5MR0iAMBrnetOdB/URZGV4ru1lCQxZMQUGB9EWTZTNq1ChtS3BiY6Nx5aXHcdUlZbjyom9w9eUHMWlCJSZfW4fr09y4YZoZade5cdV4OyZOsGPM2KHUKQSr2yz2jdWOEgZk+olWoNcV01wKvcovO2szG/2wpS9Wb2WG6tBt4pqok7NU1PKhzWsKvCa+vClZgSuccK/FSLB9pPlMcdPV1bJFC7zWTms831b7jjoGEQmMB2pdFmHBgiKtteklbbqw40oWqZbOXPGsikqwSLR0QruDug/0e/QPAEcCkigEZEUTIuNfRrq/DK6K0uJAbje1odmUO04vE94x2wiq7EU9oQZ+FEi3mdc9LxuUodxnPpazkQCWTtCydBnTkWlwwUUsNCQy5C4jS4ZEhtxoIWNda3z3bSnGja7BzOvjMPXaKEy+2oKMW4bjV/eNxW13jsINU4dg+vVn4KfTzhDCczoU2yGIx4JD1ZURvpegRsmEIXpm8zqPU5BcrFoaNDIkeW0AF0XaPPGlaWZrRjGSPRaBf1TNINfkcVtRSyMZ85salk3nS8kMXC7otYQgxPUHj+7ZGs+3OcdobqTStkEXFqPAHD9eLVO4qDHbG7fMyWWYnJUlKlNqUIj7Ts5FVoAWfPeEWuh+ce6FZZ4h/n5ChtEIVobc154RgCQWKZDdK/S3OUttkZdRX2qghmawMsGO2V5QJZ+TJ/v2yG3me/IQ7rOyfCzKCOKWFzmqpe3dr8ww6EEO+tGeBUH9RDlGEaIpaCg9+dT/yljqQkjEv4GhbR9++KHy6quvyk8hANqWpjl8+LDy/fffy/jXQqSUd955R7n6hulKekam8sMbpimLFy9Wjh07phw5ckSWO3r0qPLHPz6u3HRzpvLll19qR2kv/GP5d3NKs5UUdMZY9Ybfp/xZu+RvmBb//MQzyokT1UplZaVSVVWpLF++XLnnnnuUx57MpoJN8vbbb3vS8uX/9EkPPfSQVioA9CxTspVGPy2f/FJFGLhKpv7A12Yq0Ff0csbyAY9Jv+HO+J01QelaJTvb965Em4he7PNJKfKP1/sMgpehbSliPUX8xkWe56Hr+VQ2xftd+D3XwGWCHTPQd9LC7yngd0+/H6q/9E8tW8f4G5LXrie6B0PhRscWxxP3lSKOKVOm7zbvsxApRdyT4VARz3VG79HQEOdwLZlg7NmzBw88/iROj+uHY1VV+OmUq3HzzT/Xtqo88vs/QnGakJ5+g3zzuv2gET4LkFRagFP+7mcHgIZATynKDsuv3bGgQSrab5R+5a041xlNnkkYLRhbxgZcjC+w8rfX4qmnntJymU4BvcUvft0JrfkDb4tjdlIiVooxY8bgqquuapbI0Bv+77//Pp5fshSfbN2GlAsvxs+nTcLUq8cDUbF4/fU38Mor/8TJkydlebMFqDp5CBs2Fsh1pr3wfb+Ho3s2JpCbLOeLHMzSJtdkOhlCDVpdENrimJ2Udpu9WYf6eGioM306nU7Z/0LDl6OiorQSvlC5llhOTHem7SyaJ5980vNipv9w5srKSixbtkxbYxim3YWGYdqPthMahmHCh00FpgvTdj9vDnzGMOHDQsMwzUQR1j8FPnvwwVflpJp/+tOf5JB/hmF8YaFhmGbCgc8YJjxYaBimhXDgsy4ADUUO8A5ji2iLY3ZSWGgYphmQ26yjBj7zBuMKHt6iMyLfPtfuy5vU2a3DuedgZYIFKfOWb4vAZ/Sunnot+v7N+qr035PfsRqdUs5C4neORvt2oMBnDMOodMjAZ6JCaTIIWCelawU+I4wTy7bg5fCuFviMYboq6rDnaFjh1ObQCC/OUiBOaeCzcIKAdRE6deCzEBNStpROH/iMYRiVzhH4zBvgq8uhWQ2dOvBZYS4ytBk4WtPF2SUCnzEMo9LRA5+FFeCrk9IlAp8JC2D+CnJZrRWWRgtcnF018BnDMI2JKC5NGwc+iyTAV+ejCwQ+09ydaXQR5HZriYuzqwY+Y5juAE0CqyP/iLVE0BDmuCgz6p3iT6i6CnUVBxCDWMRZYmB31qNBlgoFtS7bJvAZVaZNBQHrzHDgsxBQZd8VAp8xTHdBn+hVfy9Gd000NDTId2a+bbDB7HRjvyhWH9MPJce+x4Hqg4g19USs3Sb3CUWbBD4rCyMIWKeGWuidP/AZiR4NcZdlyoSFJgPnttI31gEDn7HQMEwQaOZwwmKxSLHR16Ojo2UaeLIGbnslGr47icrjFTgjpgdOCH3pEe1GXXSMLBsSv5E5Xqj16G1Bp01PFivUmds0+aLGKkQOpmiiSKkrvUsjajdRI8/3GQoc/J69gymClhHfwXzZz5KKVFOiaP1rx6b+F9Hyp76PxClFyPRE2DUM0AhWJtgxDfsmzF0h9l2g9q1Qp0r2ilaMfaVbHwFEWSAbOLr7zNi/I66jeH4plgX5oaUtK0VSXoY6GEWkjLwklGqF1fvR+qvoeYhbWmvoJ+LZm5nuQROzN7/11tvYvGUrzjrrLPz2t+LvAG6YRDuMhipbrVZPqAoKbUGCQ5NnDo7qgfePHsJYUw84omw4ecubGFlzDK89eSUWLfizOI9V7sN0AugtflEttmr8mLY4ZieFLRqGCQIJClkuJDIkMJTIz0155D7bUXkQ5zpjUWdrwG5zDZ758h3Mid0BK0Xss/M0NJ2KtghS1hbH7JQA/w9Cs5y/xfaj4gAAAABJRU5ErkJggg==;" parent="1" vertex="1">
          <mxGeometry x="320" y="520" width="410" height="325" as="geometry" />
        </mxCell>
        <mxCell id="F40ZG_X-PXjSORt7kdpl-1" value="" style="rounded=1;whiteSpace=wrap;html=1;" vertex="1" parent="1">
          <mxGeometry x="870" y="20" width="518" height="390" as="geometry" />
        </mxCell>
        <mxCell id="F40ZG_X-PXjSORt7kdpl-2" value="SD-WAN3" style="rounded=0;whiteSpace=wrap;html=1;" vertex="1" parent="1">
          <mxGeometry x="1038" y="350" width="60" height="20" as="geometry" />
        </mxCell>
        <mxCell id="F40ZG_X-PXjSORt7kdpl-6" value="DG3&lt;br&gt;72.209.90.3" style="rounded=0;whiteSpace=wrap;html=1;" vertex="1" parent="1">
          <mxGeometry x="1235" y="215.3" width="70" height="30" as="geometry" />
        </mxCell>
        <mxCell id="F40ZG_X-PXjSORt7kdpl-7" value="AP1" style="rounded=0;whiteSpace=wrap;html=1;" vertex="1" parent="1">
          <mxGeometry x="1290" y="90.00000000000001" width="60" height="20" as="geometry" />
        </mxCell>
        <mxCell id="F40ZG_X-PXjSORt7kdpl-8" value="" style="image;points=[];aspect=fixed;html=1;align=center;shadow=0;dashed=0;image=img/lib/allied_telesis/computer_and_terminals/Laptop.svg;" vertex="1" parent="1">
          <mxGeometry x="1088" y="130" width="42" height="42.599999999999994" as="geometry" />
        </mxCell>
        <mxCell id="F40ZG_X-PXjSORt7kdpl-9" value="" style="image;points=[];aspect=fixed;html=1;align=center;shadow=0;dashed=0;image=img/lib/allied_telesis/computer_and_terminals/Laptop.svg;" vertex="1" parent="1">
          <mxGeometry x="1130" y="47.39999999999998" width="42" height="42.599999999999994" as="geometry" />
        </mxCell>
        <mxCell id="F40ZG_X-PXjSORt7kdpl-10" value="" style="endArrow=none;dashed=1;html=1;dashPattern=1 3;strokeWidth=2;rounded=0;entryX=0;entryY=0.75;entryDx=0;entryDy=0;" edge="1" parent="1" source="F40ZG_X-PXjSORt7kdpl-9" target="F40ZG_X-PXjSORt7kdpl-7">
          <mxGeometry width="50" height="50" relative="1" as="geometry">
            <mxPoint x="1192" y="74.39999999999999" as="sourcePoint" />
            <mxPoint x="1342" y="47.39999999999998" as="targetPoint" />
          </mxGeometry>
        </mxCell>
        <mxCell id="F40ZG_X-PXjSORt7kdpl-11" value="Guest VLAN 200" style="edgeLabel;html=1;align=center;verticalAlign=middle;resizable=0;points=[];" vertex="1" connectable="0" parent="F40ZG_X-PXjSORt7kdpl-10">
          <mxGeometry x="-0.0074" y="-3" relative="1" as="geometry">
            <mxPoint as="offset" />
          </mxGeometry>
        </mxCell>
        <mxCell id="F40ZG_X-PXjSORt7kdpl-12" value="" style="endArrow=none;dashed=1;html=1;dashPattern=1 3;strokeWidth=2;rounded=0;exitX=0;exitY=0.75;exitDx=0;exitDy=0;" edge="1" parent="1" source="F40ZG_X-PXjSORt7kdpl-7" target="F40ZG_X-PXjSORt7kdpl-8">
          <mxGeometry width="50" height="50" relative="1" as="geometry">
            <mxPoint x="1280" y="110.00000000000001" as="sourcePoint" />
            <mxPoint x="1410" y="169.29999999999995" as="targetPoint" />
          </mxGeometry>
        </mxCell>
        <mxCell id="F40ZG_X-PXjSORt7kdpl-13" value="Private VLAN 300" style="edgeLabel;html=1;align=center;verticalAlign=middle;resizable=0;points=[];" vertex="1" connectable="0" parent="F40ZG_X-PXjSORt7kdpl-12">
          <mxGeometry x="0.1165" y="-1" relative="1" as="geometry">
            <mxPoint as="offset" />
          </mxGeometry>
        </mxCell>
        <mxCell id="F40ZG_X-PXjSORt7kdpl-14" value="Site 3" style="rounded=0;whiteSpace=wrap;html=1;" vertex="1" parent="1">
          <mxGeometry x="1190" y="20" width="120" height="30" as="geometry" />
        </mxCell>
        <mxCell id="F40ZG_X-PXjSORt7kdpl-15" value="" style="endArrow=none;html=1;rounded=0;entryX=0.5;entryY=1;entryDx=0;entryDy=0;exitX=0.5;exitY=0;exitDx=0;exitDy=0;" edge="1" parent="1" source="F40ZG_X-PXjSORt7kdpl-2" target="F40ZG_X-PXjSORt7kdpl-6">
          <mxGeometry width="50" height="50" relative="1" as="geometry">
            <mxPoint x="1440" y="340" as="sourcePoint" />
            <mxPoint x="1490" y="290" as="targetPoint" />
          </mxGeometry>
        </mxCell>
        <mxCell id="F40ZG_X-PXjSORt7kdpl-16" value="" style="endArrow=none;html=1;rounded=0;entryX=0.5;entryY=1;entryDx=0;entryDy=0;exitX=0.5;exitY=0;exitDx=0;exitDy=0;" edge="1" parent="1" source="F40ZG_X-PXjSORt7kdpl-18" target="F40ZG_X-PXjSORt7kdpl-7">
          <mxGeometry width="50" height="50" relative="1" as="geometry">
            <mxPoint x="1440" y="340" as="sourcePoint" />
            <mxPoint x="1490" y="290" as="targetPoint" />
          </mxGeometry>
        </mxCell>
        <mxCell id="F40ZG_X-PXjSORt7kdpl-17" value="" style="endArrow=none;html=1;rounded=0;entryX=0.5;entryY=1;entryDx=0;entryDy=0;exitX=0.5;exitY=0;exitDx=0;exitDy=0;" edge="1" parent="1" source="F40ZG_X-PXjSORt7kdpl-6" target="F40ZG_X-PXjSORt7kdpl-18">
          <mxGeometry width="50" height="50" relative="1" as="geometry">
            <mxPoint x="1320" y="190" as="sourcePoint" />
            <mxPoint x="1320" y="110.00000000000001" as="targetPoint" />
          </mxGeometry>
        </mxCell>
        <mxCell id="F40ZG_X-PXjSORt7kdpl-18" value="" style="sketch=0;points=[[0.015,0.015,0],[0.985,0.015,0],[0.985,0.985,0],[0.015,0.985,0],[0.25,0,0],[0.5,0,0],[0.75,0,0],[1,0.25,0],[1,0.5,0],[1,0.75,0],[0.75,1,0],[0.5,1,0],[0.25,1,0],[0,0.75,0],[0,0.5,0],[0,0.25,0]];verticalLabelPosition=bottom;html=1;verticalAlign=top;aspect=fixed;align=center;pointerEvents=1;shape=mxgraph.cisco19.rect;prIcon=l2_switch;fillColor=#FAFAFA;strokeColor=#005073;" vertex="1" parent="1">
          <mxGeometry x="1305" y="136.29999999999995" width="30" height="30" as="geometry" />
        </mxCell>
        <mxCell id="F40ZG_X-PXjSORt7kdpl-19" value="" style="endArrow=none;html=1;rounded=0;entryX=1;entryY=0.5;entryDx=0;entryDy=0;entryPerimeter=0;exitX=1;exitY=0.5;exitDx=0;exitDy=0;" edge="1" parent="1" source="F40ZG_X-PXjSORt7kdpl-2" target="F40ZG_X-PXjSORt7kdpl-18">
          <mxGeometry width="50" height="50" relative="1" as="geometry">
            <mxPoint x="1410" y="310" as="sourcePoint" />
            <mxPoint x="1460" y="260" as="targetPoint" />
            <Array as="points">
              <mxPoint x="1360" y="250" />
            </Array>
          </mxGeometry>
        </mxCell>
        <mxCell id="F40ZG_X-PXjSORt7kdpl-20" value="Trunk &lt;br&gt;VLAN 300-307" style="edgeLabel;html=1;align=center;verticalAlign=middle;resizable=0;points=[];" vertex="1" connectable="0" parent="F40ZG_X-PXjSORt7kdpl-19">
          <mxGeometry x="-0.559" relative="1" as="geometry">
            <mxPoint as="offset" />
          </mxGeometry>
        </mxCell>
        <mxCell id="F40ZG_X-PXjSORt7kdpl-21" value="Edgemarc&lt;br&gt;98.186.19.98" style="rounded=0;whiteSpace=wrap;html=1;" vertex="1" parent="1">
          <mxGeometry x="1150" y="215.3" width="70" height="30" as="geometry" />
        </mxCell>
        <mxCell id="F40ZG_X-PXjSORt7kdpl-22" value="" style="sketch=0;points=[[0.015,0.015,0],[0.985,0.015,0],[0.985,0.985,0],[0.015,0.985,0],[0.25,0,0],[0.5,0,0],[0.75,0,0],[1,0.25,0],[1,0.5,0],[1,0.75,0],[0.75,1,0],[0.5,1,0],[0.25,1,0],[0,0.75,0],[0,0.5,0],[0,0.25,0]];verticalLabelPosition=bottom;html=1;verticalAlign=top;aspect=fixed;align=center;pointerEvents=1;shape=mxgraph.cisco19.rect;prIcon=l2_switch;fillColor=#FAFAFA;strokeColor=#005073;" vertex="1" parent="1">
          <mxGeometry x="960" y="210" width="30" height="30" as="geometry" />
        </mxCell>
        <mxCell id="F40ZG_X-PXjSORt7kdpl-23" value="" style="endArrow=none;html=1;rounded=0;exitX=1;exitY=0.5;exitDx=0;exitDy=0;exitPerimeter=0;entryX=0;entryY=0.5;entryDx=0;entryDy=0;entryPerimeter=0;" edge="1" parent="1" source="F40ZG_X-PXjSORt7kdpl-22" target="F40ZG_X-PXjSORt7kdpl-18">
          <mxGeometry width="50" height="50" relative="1" as="geometry">
            <mxPoint x="1290" y="350" as="sourcePoint" />
            <mxPoint x="1340" y="300" as="targetPoint" />
          </mxGeometry>
        </mxCell>
        <mxCell id="F40ZG_X-PXjSORt7kdpl-24" value="Access&lt;br&gt;VLAN 300" style="edgeLabel;html=1;align=center;verticalAlign=middle;resizable=0;points=[];" vertex="1" connectable="0" parent="F40ZG_X-PXjSORt7kdpl-23">
          <mxGeometry x="-0.1049" y="-3" relative="1" as="geometry">
            <mxPoint y="-1" as="offset" />
          </mxGeometry>
        </mxCell>
        <mxCell id="F40ZG_X-PXjSORt7kdpl-25" value="" style="endArrow=none;html=1;rounded=0;exitX=0.25;exitY=1;exitDx=0;exitDy=0;entryX=0.25;entryY=0;entryDx=0;entryDy=0;" edge="1" parent="1" source="F40ZG_X-PXjSORt7kdpl-21" target="F40ZG_X-PXjSORt7kdpl-2">
          <mxGeometry width="50" height="50" relative="1" as="geometry">
            <mxPoint x="1270" y="320" as="sourcePoint" />
            <mxPoint x="1300" y="290" as="targetPoint" />
          </mxGeometry>
        </mxCell>
        <mxCell id="F40ZG_X-PXjSORt7kdpl-26" value="" style="endArrow=none;html=1;rounded=0;exitX=1;exitY=0.75;exitDx=0;exitDy=0;exitPerimeter=0;entryX=0;entryY=0.5;entryDx=0;entryDy=0;" edge="1" parent="1" source="F40ZG_X-PXjSORt7kdpl-22" target="F40ZG_X-PXjSORt7kdpl-21">
          <mxGeometry width="50" height="50" relative="1" as="geometry">
            <mxPoint x="1270" y="320" as="sourcePoint" />
            <mxPoint x="1180" y="250" as="targetPoint" />
          </mxGeometry>
        </mxCell>
        <mxCell id="F40ZG_X-PXjSORt7kdpl-27" value="Trunk&lt;br&gt;VLAN 269 &amp;amp; 369" style="edgeLabel;html=1;align=center;verticalAlign=middle;resizable=0;points=[];" vertex="1" connectable="0" parent="F40ZG_X-PXjSORt7kdpl-26">
          <mxGeometry x="0.2445" relative="1" as="geometry">
            <mxPoint x="-12" y="3" as="offset" />
          </mxGeometry>
        </mxCell>
        <mxCell id="F40ZG_X-PXjSORt7kdpl-28" value="" style="fontColor=#0066CC;verticalAlign=top;verticalLabelPosition=bottom;labelPosition=center;align=center;html=1;outlineConnect=0;fillColor=#CCCCCC;strokeColor=#6881B3;gradientColor=none;gradientDirection=north;strokeWidth=2;shape=mxgraph.networks.phone_2;" vertex="1" parent="1">
          <mxGeometry x="900" y="96.29999999999997" width="40" height="40" as="geometry" />
        </mxCell>
        <mxCell id="F40ZG_X-PXjSORt7kdpl-29" value="" style="endArrow=none;html=1;rounded=0;exitX=0.015;exitY=0.015;exitDx=0;exitDy=0;exitPerimeter=0;entryX=0.5;entryY=1;entryDx=0;entryDy=0;entryPerimeter=0;" edge="1" parent="1" source="F40ZG_X-PXjSORt7kdpl-22" target="F40ZG_X-PXjSORt7kdpl-28">
          <mxGeometry width="50" height="50" relative="1" as="geometry">
            <mxPoint x="980" y="320" as="sourcePoint" />
            <mxPoint x="910" y="170" as="targetPoint" />
          </mxGeometry>
        </mxCell>
        <mxCell id="F40ZG_X-PXjSORt7kdpl-30" value="Trunk&lt;br&gt;VLAN 269" style="edgeLabel;html=1;align=center;verticalAlign=middle;resizable=0;points=[];" vertex="1" connectable="0" parent="F40ZG_X-PXjSORt7kdpl-29">
          <mxGeometry x="-0.1908" y="-4" relative="1" as="geometry">
            <mxPoint x="-8" y="-6" as="offset" />
          </mxGeometry>
        </mxCell>
        <mxCell id="F40ZG_X-PXjSORt7kdpl-31" value="" style="image;points=[];aspect=fixed;html=1;align=center;shadow=0;dashed=0;image=img/lib/allied_telesis/computer_and_terminals/Laptop.svg;" vertex="1" parent="1">
          <mxGeometry x="1038" y="40" width="42" height="42.599999999999994" as="geometry" />
        </mxCell>
        <mxCell id="F40ZG_X-PXjSORt7kdpl-32" value="" style="endArrow=none;html=1;rounded=0;entryX=-0.095;entryY=0.469;entryDx=0;entryDy=0;entryPerimeter=0;exitX=0.98;exitY=0.12;exitDx=0;exitDy=0;exitPerimeter=0;" edge="1" parent="1" source="F40ZG_X-PXjSORt7kdpl-28" target="F40ZG_X-PXjSORt7kdpl-31">
          <mxGeometry width="50" height="50" relative="1" as="geometry">
            <mxPoint x="980" y="320" as="sourcePoint" />
            <mxPoint x="1030" y="270" as="targetPoint" />
          </mxGeometry>
        </mxCell>
        <mxCell id="F40ZG_X-PXjSORt7kdpl-33" value="Text" style="edgeLabel;html=1;align=center;verticalAlign=middle;resizable=0;points=[];" vertex="1" connectable="0" parent="F40ZG_X-PXjSORt7kdpl-32">
          <mxGeometry x="-0.0682" y="-1" relative="1" as="geometry">
            <mxPoint y="1" as="offset" />
          </mxGeometry>
        </mxCell>
        <mxCell id="F40ZG_X-PXjSORt7kdpl-34" value="Trunk&lt;br&gt;VLAN 300" style="edgeLabel;html=1;align=center;verticalAlign=middle;resizable=0;points=[];" vertex="1" connectable="0" parent="F40ZG_X-PXjSORt7kdpl-32">
          <mxGeometry x="-0.0437" y="-5" relative="1" as="geometry">
            <mxPoint as="offset" />
          </mxGeometry>
        </mxCell>
        <mxCell id="F40ZG_X-PXjSORt7kdpl-35" value="" style="image;points=[];aspect=fixed;html=1;align=center;shadow=0;dashed=0;image=img/lib/allied_telesis/computer_and_terminals/Laptop.svg;" vertex="1" parent="1">
          <mxGeometry x="948" y="297.4" width="42" height="42.599999999999994" as="geometry" />
        </mxCell>
        <mxCell id="F40ZG_X-PXjSORt7kdpl-36" value="" style="endArrow=none;html=1;rounded=0;entryX=0.952;entryY=-0.009;entryDx=0;entryDy=0;entryPerimeter=0;exitX=0.75;exitY=1;exitDx=0;exitDy=0;exitPerimeter=0;" edge="1" parent="1" source="F40ZG_X-PXjSORt7kdpl-22" target="F40ZG_X-PXjSORt7kdpl-35">
          <mxGeometry width="50" height="50" relative="1" as="geometry">
            <mxPoint x="889" y="370" as="sourcePoint" />
            <mxPoint x="980" y="539" as="targetPoint" />
          </mxGeometry>
        </mxCell>
        <mxCell id="F40ZG_X-PXjSORt7kdpl-37" value="Text" style="edgeLabel;html=1;align=center;verticalAlign=middle;resizable=0;points=[];" vertex="1" connectable="0" parent="F40ZG_X-PXjSORt7kdpl-36">
          <mxGeometry x="-0.0682" y="-1" relative="1" as="geometry">
            <mxPoint y="1" as="offset" />
          </mxGeometry>
        </mxCell>
        <mxCell id="F40ZG_X-PXjSORt7kdpl-38" value="Trunk&lt;br&gt;VLAN 300" style="edgeLabel;html=1;align=center;verticalAlign=middle;resizable=0;points=[];" vertex="1" connectable="0" parent="F40ZG_X-PXjSORt7kdpl-36">
          <mxGeometry x="-0.0437" y="-5" relative="1" as="geometry">
            <mxPoint as="offset" />
          </mxGeometry>
        </mxCell>
        <mxCell id="F40ZG_X-PXjSORt7kdpl-39" value="" style="shape=link;html=1;rounded=0;entryX=1;entryY=0.25;entryDx=0;entryDy=0;exitX=0;exitY=0.5;exitDx=0;exitDy=0;" edge="1" parent="1" source="F40ZG_X-PXjSORt7kdpl-2" target="0JstrHkOvT4zA7hhjL8A-5">
          <mxGeometry width="100" relative="1" as="geometry">
            <mxPoint x="1280" y="300" as="sourcePoint" />
            <mxPoint x="130" y="540" as="targetPoint" />
          </mxGeometry>
        </mxCell>
      </root>
    </mxGraphModel>
  </diagram>
</mxfile>
